<svg xmlns="http://www.w3.org/2000/svg" viewBox="0 0 459.51123 260.52161">
  <defs>
    <clipPath id="a" clipPathUnits="userSpaceOnUse">
      <path d="M0 1920h1080V0H0Z" transform="translate(-593.48139 -196.39448)"/>
    </clipPath>
  </defs>
  <path fill="#c4a76a" d="M318.24837 194.65883c-.38546-.00761-.77834-.16264-1.10302-.49951l-2.16211-2.24414-2.84327 1.00195c-1.36599.482-2.61686-1.03813-1.98486-2.41113l1.31397-2.85791-1.80469-2.57666c-.868-1.239.09051-2.95801 1.52051-2.72901l2.97656.47754 1.72705-2.59424c.83-1.24699 2.67329-.78843 2.92529.72657l.52442 3.15234 2.87256.97266c1.38099.467 1.5621 2.46878.2871 3.17578l-2.65283 1.47217.04981 3.19482c.01581 1.056-.79846 1.75552-1.64649 1.73877zm-36.04541-20.33936c-.59213-.01186-1.19576-.24976-1.69482-.76757l-3.32227-3.44825-4.3667 1.54102c-2.098.74-4.0198-1.59459-3.0498-3.70459l2.02148-4.39014-2.77295-3.95654c-1.333-1.902.13943-4.54392 2.33643-4.19092l4.57031.73389 2.65283-3.98584c1.275-1.915 4.10861-1.21325 4.49561 1.11474l.8042 4.84278 4.41211 1.49414c2.121.718 2.39745 3.79486.43945 4.88086l-4.07226 2.25879.0747 4.90869c.02406 1.6225-1.22564 2.69504-2.52832 2.66894zm46.90283-23.05224c-.79763-.01582-1.61003-.337-2.28222-1.03418l-4.4751-4.64356-5.88135 2.07422c-2.82599.997-5.41542-2.14726-4.10742-4.98926l2.72168-5.91211-3.73535-5.33056c-1.795-2.562.18795-6.11905 3.14795-5.64405l6.1582.98731 3.57129-5.36719c1.717-2.581 5.5332-1.635 6.0542 1.5l1.08398 6.52442 5.94288 2.01123c2.85699.967 3.23025 5.11075.59326 6.57275l-5.48731 3.04395.10108 6.6123c.033 2.18487-1.65097 3.62953-3.40577 3.59473zm-50.70703-12.90528c-1.16-.0231-2.34037-.49179-3.31787-1.50586l-6.50976-6.75146-8.55176 3.01758c-4.111 1.45-7.87563-3.12384-5.97364-7.25684l3.95655-8.6001-5.43311-7.75195c-2.61-3.726.27657-8.89998 4.58057-8.20898l8.95459 1.43847 5.19433-7.80908c2.497-3.751997 8.04718-2.375914 8.80518 2.184082l1.57617 9.487798 8.64405 2.92675c4.15399 1.407 4.69632 7.43011.86132 9.55811l-7.979 4.42529.14648 9.6167c.04813 3.17762-2.40208 5.28032-4.9541 5.22949zm-11.95605-59.833006c-.64425-.004906-1.29827-.136942-1.92627-.408691-.912-.394-1.81729-.799751-2.71729-1.21875-2.48299-1.157999-3.55641-4.109265-2.39941-6.593262.842-1.803998 2.63054-2.865235 4.49853-2.865235.702 0 1.41673.148821 2.09473.465821.813.379999 1.63401.747027 2.45801 1.103027 2.515 1.085999 3.67391 4.006487 2.58691 6.521485-.8145 1.886248-2.66246 3.010324-4.59521 2.995605zm-23.89746-14.626465c-1.11175.003965-2.23261-.363599-3.15967-1.123535-1.708-1.398999-3.38959-2.861658-4.99658-4.347657-2.013-1.857998-2.13732-4.997279-.27832-7.009277.97799-1.058999 2.30853-1.595215 3.64453-1.595215 1.204 0 2.41221.435895 3.36621 1.316895 1.464 1.351998 2.99427 2.684938 4.55127 3.960937 2.119 1.736998 2.42987 4.860983.69287 6.979981-.97594 1.191936-2.39093 1.812773-3.82031 1.817871zm-96.7793-21.37793c-.32923.012881-.66433-.007739-1.00196-.062989-1.83399-.303999-3.68409-.695551-5.49609-1.16455-2.653-.687-4.24511-3.393413-3.55811-6.045411.579-2.235997 2.59283-3.717773 4.79883-3.717773.412 0 .82958.051668 1.24658.159668 1.526.395999 3.08398.724981 4.62598.97998 2.703.447 4.53145 2.99964 4.08545 5.702637-.39112 2.365123-2.39607 4.058272-4.70068 4.148438zm20.42871-.505371c-2.30701.028656-4.39387-1.56935-4.90137-3.912598-.581-2.677997 1.12034-5.317462 3.79834-5.897461 1.53-.332 3.06778-.738497 4.57178-1.208496.492-.155.98996-.227051 1.48096-.227051 2.11099 0 4.06991 1.358936 4.73291 3.481934.81799 2.613997-.63989 5.397333-3.25489 6.215332-1.785.557999-3.61318 1.041082-5.43017 1.434082-.33463.073-.66799.110164-.99756.114258zm55.14258-1.491211c-1.59237-.011661-3.14967-.789221-4.09717-2.214844-1.22-1.833998-2.39844-3.725537-3.50244-5.623535-1.377-2.367998-.57503-5.404229 1.79297-6.782227.785-.456 1.64323-.673828 2.49023-.673828 1.709 0 3.37246.884263 4.29346 2.468261 1.004 1.726999 2.07603 3.448166 3.18603 5.118165 1.518 2.280997.89919 5.359978-1.38281 6.875976-.85612.570375-1.82485.839028-2.78027.832032zM52.437819 38.401013c-.551124.0045-1.101879.002176-1.650879-.007324-1.100999-.022-2.208505-.071949-3.291504-.147949-2.732997-.192-4.792609-2.565343-4.599609-5.29834.184-2.613997 2.361385-4.611328 4.942383-4.611328.117 0 .235492.004183.354492.013183.915999.064 1.852599.106512 2.787598.124512.921999.019 1.85088.008563 2.775879-.023437 2.760997-.062 5.033953 2.052042 5.126953 4.790039.093 2.738997-2.052042 5.033488-4.790039 5.125488-.5525.0185-1.104149.030656-1.655274.035156zm69.301761-5.458007c-.95544-.001829-1.91952-.278345-2.77002-.855469-1.539-1.043999-3.05168-2.166451-4.49268-3.33545-2.12899-1.724998-2.45595-4.849053-.73095-6.977051.981-1.209998 2.41193-1.838378 3.85693-1.838378 1.097 0 2.20212.363887 3.12012 1.108886 1.225.991999 2.50892 1.945009 3.81592 2.833008 2.26799 1.537999 2.85882 4.623163 1.31982 6.88916-.96125 1.416874-2.52674 2.17834-4.11914 2.175294zm-44.153323-.1875c-1.932607.053296-3.801059-1.030643-4.653808-2.900391-1.136999-2.493998-.03692-5.435755 2.455078-6.572754 1.694998-.771999 3.374259-1.635872 4.989258-2.567871.779999-.45 1.632657-.665039 2.472656-.665039 1.715998 0 3.385247.891376 4.302246 2.484375 1.368999 2.373997.553662 5.407368-1.819336 6.776367-1.886998 1.086999-3.84715 2.096001-5.827148 3-.6235.2835-1.274743.427547-1.918946.445313zm-52.88379-.963868c-.799746.026465-1.616739-.140137-2.383301-.522949-1.946998-.975999-3.869428-2.055009-5.711426-3.208008-2.322997-1.452998-3.026241-4.514893-1.573242-6.837891.941999-1.503998 2.556963-2.329101 4.209961-2.329101.898999 0 1.808466.24486 2.626465.755859 1.577998.987999 3.225045 1.912513 4.894043 2.749512 2.448998 1.225999 3.438913 4.207717 2.211914 6.657715-.842874 1.683686-2.514972 2.676641-4.274414 2.734863zM189.23665 31.2599c-1.42813-.063439-2.81714-.741493-3.74414-1.97168-1.648-2.188998-1.21095-5.298291.97705-6.946289 1.263-.951999 2.4979-1.968044 3.6709-3.019043.947-.849999 2.13108-1.26709 3.30908-1.26709 1.361 0 2.7158.556415 3.6958 1.649414 1.829 2.039998 1.65768 5.175885-.38232 7.004883-1.382 1.238999-2.83676 2.433712-4.32276 3.553711-.95856.722312-2.09284 1.045436-3.20361.996094zm-85.04004-16.981934c-.64624.00807-1.28763-.110328-1.88525-.345703-1.421.359999-2.984334.087952-4.236333-.873047-2.173997-1.667998-2.58399-4.7810805-.916992-6.9550783.521-.6789994 1.034368-1.3827274 1.526367-2.0947267.93-1.3449986 2.457128-2.1401367 4.078128-2.1401367.106 0 .21333.0032539.31933.0102539 1.739.1109999 3.28985 1.1282711 4.08985 2.6762696.393.7599992.81119 1.5188601 1.24218 2.2558594 1.383 2.3659976.58715 5.4050878-1.77685 6.7880858-.7695.448875-1.60955.667848-2.44043.678223zM1.4715094 12.272595c-1.510001-.037766-2.9840948-.762154-3.9257813-2.087403-.5949994-.8379987-1.174192-1.698688-1.7211915-2.5546871-1.4739985-2.3099977-.7987437-5.3770759 1.510254-6.8510744C-1.8382103.251431-.9136577.0001335-.0006586.0001335c1.6369984 0 3.2405245.8100173 4.1865235 2.2910158.4599996.7219993.9477311 1.4443914 1.4487306 2.1503907 1.5859984 2.2349977 1.0606578 5.3319939-1.1733399 6.916992-.9067491.644718-1.9565876.939903-2.9897462.914063zm206.5678806-.341309c-.47225-.00675-.93592-.081762-1.37842-.218261-.94.102999-1.91736-.062739-2.81836-.531739-2.43-1.2649985-3.37484-4.2599438-2.11084-6.6899414.392-.7529992.77093-1.5338485 1.12793-2.3188477.811-1.7799982 2.58318-2.9047852 4.51318-2.9047852.147 0 .29631.0065078.44531.0205078 2.098.1869998 3.84724 1.6787053 4.36524 3.7207032.22.8699992.45419 1.7385635.70019 2.6015626.75 2.6359974-.77908 5.3803717-3.41308 6.1303717-.4775.135499-.9589.197179-1.43115.190429z" clip-path="url(#a)" transform="matrix(1.33333 0 0 -1.33333 6.6083 259.5451)"/>
</svg>
