<?xml version="1.0" encoding="iso-8859-1"?>
<!-- Uploaded to: SVG Repo, www.svgrepo.com, Generator: SVG Repo Mixer Tools -->
<!DOCTYPE svg PUBLIC "-//W3C//DTD SVG 1.1//EN" "http://www.w3.org/Graphics/SVG/1.1/DTD/svg11.dtd">
<svg version="1.1" id="Capa_1" xmlns="http://www.w3.org/2000/svg" xmlns:xlink="http://www.w3.org/1999/xlink" 
	 viewBox="0 0 297 297" xml:space="preserve">
<g>
	<g>
		<path style="fill:#4E5051;" d="M115.5,99h-33V66c0-9.113,7.387-16.5,16.5-16.5h0c9.113,0,16.5,7.387,16.5,16.5V99z"/>
	</g>
	<g>
		<path style="fill:#4E5051;" d="M214.5,99h-33V66c0-9.113,7.387-16.5,16.5-16.5h0c9.113,0,16.5,7.387,16.5,16.5V99z"/>
	</g>
	<g>
		<rect x="132" y="33" style="fill:#686868;" width="33" height="49.5"/>
	</g>
	<g>
		<path style="fill:#4E5051;" d="M198,16.5L198,16.5C198,7.387,190.613,0,181.5,0h-66C106.387,0,99,7.387,99,16.5v0
			c0,3.044,0.839,5.885,2.276,8.333h94.448C197.161,22.385,198,19.544,198,16.5z"/>
	</g>
	<g>
		<path style="fill:#343738;" d="M101.276,24.833C104.142,29.714,109.431,33,115.5,33h66c6.069,0,11.358-3.286,14.224-8.167H101.276
			z"/>
	</g>
	<g>
		<circle style="fill:#D35400;" cx="148.5" cy="181.5" r="115.5"/>
	</g>
	<g style="opacity:0.45;">
		<path style="fill:#D35400;" d="M148.5,66c-2.775,0-5.524,0.104-8.25,0.296C200.188,70.527,247.5,120.486,247.5,181.5
			s-47.312,110.973-107.25,115.204c2.726,0.192,5.475,0.296,8.25,0.296c63.789,0,115.5-51.711,115.5-115.5S212.289,66,148.5,66z"/>
	</g>
	<g>
		<path style="fill:#FFA800;" d="M148.5,99c-30.84,0-57.71,16.934-71.867,42h143.734C206.21,115.934,179.34,99,148.5,99z"/>
	</g>
	<g>
		<path style="fill:#FFA800;" d="M76.346,221.5c14.08,25.342,41.108,42.5,72.154,42.5s58.075-17.158,72.154-42.5H76.346z"/>
	</g>
	<g>
		<path style="fill:#C98000;" d="M231,181.5c0-14.723-3.875-28.534-10.633-40.5H76.633C69.875,152.966,66,166.777,66,181.5
			c0,14.517,3.762,28.15,10.346,40h144.308C227.238,209.65,231,196.017,231,181.5z"/>
	</g>
	<g>
		<path style="fill:#F0DEB4;" d="M94.333,214.5h108.334c6.535,0,11.833-5.298,11.833-11.833v-42.334
			c0-6.535-5.298-11.833-11.833-11.833H94.333c-6.535,0-11.833,5.298-11.833,11.833v42.334C82.5,209.202,87.798,214.5,94.333,214.5z
			"/>
	</g>
	<g>
		<path style="fill:#3A3938;" d="M132,202.5h-23c-2.485,0-4.5-2.015-4.5-4.5v-33c0-2.485,2.015-4.5,4.5-4.5h23
			c2.485,0,4.5,2.015,4.5,4.5v33C136.5,200.485,134.485,202.5,132,202.5z M113.5,193.5h14v-24h-14V193.5z"/>
	</g>
	<g>
		<path style="fill:#3A3938;" d="M188,202.5h-23c-2.485,0-4.5-2.015-4.5-4.5v-33c0-2.485,2.015-4.5,4.5-4.5h23
			c2.485,0,4.5,2.015,4.5,4.5v33C192.5,200.485,190.485,202.5,188,202.5z M169.5,193.5h14v-24h-14V193.5z"/>
	</g>
	<g>
		<path style="fill:#3A3938;" d="M148.497,202.5c-1.181,0-2.34-0.48-3.181-1.32c-0.84-0.84-1.319-2-1.319-3.18
			c0-1.181,0.479-2.34,1.319-3.181c0.841-0.84,2-1.319,3.181-1.319c1.189,0,2.34,0.479,3.18,1.319c0.84,0.83,1.32,1.99,1.32,3.181
			c0,1.18-0.48,2.34-1.32,3.18C150.847,202.02,149.687,202.5,148.497,202.5z"/>
	</g>
</g>
</svg>