<svg
   viewBox="0 0 1015.6899 498.37488"
   version="1.1"
   id="svg1"
   xmlns="http://www.w3.org/2000/svg"
   xmlns:svg="http://www.w3.org/2000/svg">
  <defs
     id="defs1">
    <clipPath
       clipPathUnits="userSpaceOnUse"
       id="clipPath6">
      <path
         d="m 262.119,7831.935 h 2825.265 v 501.086 H 262.119 Z"
         transform="translate(-272.1661,-8324.1398)"
         id="path6" />
    </clipPath>
    <clipPath
       clipPathUnits="userSpaceOnUse"
       id="clipPath16">
      <path
         d="M 0,9524.409 H 3401.575 V 0 H 0 Z"
         transform="translate(0,-2.5000001e-4)"
         id="path16" />
    </clipPath>
  </defs>
  <g
     inkscape:label="Capa 1"
     inkscape:groupmode="layer"
     id="layer1"
     transform="translate(390.26042,144.46249)">
    <path
       id="path4"
       d="m 597.54698,-144.46249 h -18.50843 v 3.7331 h 6.52364 v 18.74821 h 5.21311 v -18.74821 h 6.20531 z m 24.57318,0 h -6.7014 l -3.79512,15.49466 -4.04316,-15.49466 h -6.63112 l -1.9141,22.48131 h 5.07256 l 0.52917,-9.03304 c 0.17777,-3.15019 0.21497,-6.13916 0,-9.28935 l 4.43177,15.91634 h 4.932 l 4.14651,-15.8874 c -0.10748,2.56728 0,5.94899 0.21498,9.16533 l 0.52917,9.12812 h 5.10563 z m 0,0"
       style="fill:#050606;fill-opacity:1;fill-rule:nonzero;stroke:none;stroke-width:0.337703"
       aria-label="TM" />
    <path
       id="path5"
       d="m 0,0 h 167.202 c 90.262,0 139.054,-28.568 146.387,-85.612 0.342,-2.428 0.535,-6.263 0.535,-11.493 0,-20.989 -6.923,-38.926 -20.712,-53.641 -13.8,-14.805 -34.263,-25.163 -61.636,-31.006 v -1.044 c 25.893,-4.357 47.46,-13.75 64.688,-28.216 17.319,-14.454 26.132,-35.352 26.565,-62.694 0,-69.32 -49.988,-103.98 -150.077,-103.98 H 0 Z m 105.93,-149.872 h 55.066 c 30.05,1.134 45.103,14.272 45.103,39.618 -0.956,24.301 -16.693,36.486 -47.118,36.486 H 105.93 Z m 0,-154.057 h 58.3 c 16.408,0 28.41,3.743 35.914,11.152 7.424,7.397 11.546,16.19 12.218,26.298 0,7.658 -1.731,14.806 -5.147,21.511 -3.416,6.614 -8.13,12.105 -14.256,16.189 -6.115,4.187 -12.742,6.275 -19.916,6.275 H 105.93 Z m 445.14,90.308 c -3.837,37.621 -20.45,56.431 -49.816,56.431 -27.613,-1.305 -41.949,-20.115 -43.008,-56.431 z m -1.48,-78.373 h 92.824 c -1.594,-17.426 -8.232,-33.355 -20.131,-47.81 -11.797,-14.374 -27.761,-25.696 -47.893,-33.967 -19.995,-8.271 -42.746,-12.367 -67.91,-12.367 -33.807,0.352 -61.329,5.571 -82.428,15.759 -21.032,10.188 -36.62,25.436 -46.731,45.892 -10.055,20.466 -15.554,46.595 -16.614,78.384 0,29.43 6.024,54.605 18.094,75.582 11.956,20.91 28.842,36.668 50.614,47.378 21.646,10.71 46.674,16.111 74.981,16.111 35.481,0 63.549,-6.796 84.239,-20.456 20.747,-13.682 35.139,-32.141 43.463,-55.569 8.198,-23.428 12.32,-51.201 12.32,-83.422 H 455.103 c 0,-42.159 15.372,-63.227 46.151,-63.227 12.149,0 22.887,2.961 32.258,8.974 9.348,5.911 14.677,15.497 16.078,28.738 m 251.714,-85.692 H 701.67 V 0 h 99.634 z m 231.275,35.614 c -17.854,-28.477 -44.066,-43.113 -78.75,-44.066 -35.128,0 -60.395,7.919 -75.699,23.86 -15.303,15.94 -23.251,35.703 -23.877,59.301 0.728,2.439 1.047,5.321 1.047,8.792 3.245,57.567 53.973,86.316 152.115,86.316 11.067,0 19.551,-0.181 25.164,-0.522 v 11.493 c 0,14.453 -2.209,25.425 -6.57,32.833 -4.44,7.397 -12.764,11.05 -24.891,11.05 -12.958,0 -22.045,-4.084 -27.294,-12.275 -5.306,-8.101 -7.959,-17.597 -7.959,-28.397 h -94.282 c 0,56.612 44.385,85.441 133.179,86.655 22.58,0 43.03,-3.04 61.465,-9.145 18.356,-6.182 32.93,-15.145 43.623,-27.08 10.737,-11.936 16.077,-26.118 16.077,-42.762 v -129.573 c 0,-7.931 0.672,-18.55 2.073,-31.71 1.423,-13.241 2.823,-23.338 4.224,-30.384 h -96.604 c -1.287,0 -2.016,11.834 -2.016,35.614 z m 0,89.786 c -22.374,0 -40.821,-2.53 -55.35,-7.488 -14.484,-5.059 -22.956,-16.11 -25.404,-33.184 3.313,-21.943 14.86,-33.878 34.604,-35.614 12.56,1.305 22.09,5.661 28.581,13.058 6.559,7.489 10.749,16.032 12.855,25.698 1.982,9.575 3.564,22.112 4.714,37.53 m 154.711,136.892 h 98.154 c -0.615,0 0.068,-14.272 2.175,-42.93 h 0.956 c 16.42,32.833 46.162,49.204 89.146,49.204 11.273,0 22.387,-1.656 33.409,-4.958 10.92,-3.313 20.701,-8.634 29.366,-15.94 8.563,-7.317 14.917,-16.371 19.05,-27.172 3.849,7.137 10.055,14.544 18.686,22.294 8.654,7.658 19.255,14.193 31.814,19.422 12.605,5.311 26.475,8.101 41.778,8.442 19.164,0 36.381,-3.914 51.65,-11.845 15.213,-7.919 27.203,-18.98 35.675,-33.264 8.562,-14.363 12.844,-30.655 12.844,-49.023 v -176.522 h -100.169 v 150.995 c 0,37.19 -13.277,55.83 -39.751,55.83 -11.637,0 -21.316,-3.743 -29.195,-11.232 -7.88,-7.499 -11.82,-19.252 -11.82,-35.272 v -160.321 h -99.633 v 150.995 c 0,37.893 -13.289,56.874 -39.854,56.874 -12.764,-0.522 -22.967,-4.787 -30.573,-12.797 -7.606,-8.101 -11.364,-19.685 -11.364,-34.751 v -160.321 h -99.11 v 194.89 c 0,17.767 -0.444,32.22 -1.252,43.543 -0.763,11.323 -1.48,19.253 -1.982,23.859 m 499.854,0 h 106.465 l 52.424,-182.784 h 1.06 l 56.113,182.784 h 92.289 L 1851.807,-477.49 h -92.312 l 38.304,91.352 z m 453.714,-262.292 h -99.646 V 0 h 99.646 z m 49.725,171.462 h 148.938 v -63.319 H 2190.583 Z M 2385.228,0 h 165.175 c 44.761,0 82.006,-6.615 111.805,-19.854 29.709,-13.332 45.103,-38.666 46.071,-76.208 0,-28.385 -9.098,-50.327 -27.18,-65.654 -18.207,-15.419 -41.277,-24.914 -69.231,-28.477 v -2.008 c 25.256,-0.862 43.702,-5.923 55.305,-15.237 11.728,-9.314 18.959,-19.854 21.852,-31.438 2.892,-11.674 6.49,-32.742 10.68,-63.137 4.202,-30.393 9.679,-55.648 16.522,-75.673 h -114.322 c -2.893,8.532 -6.115,27.944 -9.724,58.429 -3.656,30.485 -5.682,47.117 -6.115,49.726 -1.993,15.94 -8.483,25.867 -19.209,29.702 -10.841,3.824 -27.887,5.741 -51.127,5.741 h -24.584 v -143.598 h -105.918 z m 105.918,-73.768 v -86.564 h 48.701 c 39.239,0 58.824,15.248 58.824,45.811 -1.048,14.545 -6.638,24.995 -16.978,31.269 -10.213,6.353 -25.324,9.484 -45.455,9.484 z"
       style="fill:#050606;fill-opacity:1;fill-rule:nonzero;stroke:none"
       transform="matrix(0.35277776,0,0,-0.35277776,-386.10216,-138.21037)"
       clip-path="url(#clipPath6)" />
    <path
       id="path15"
       d="M 2893.328,6929.146 H 508.247 v 318.438 h 2385.081 z"
       style="fill:#e71e43;fill-opacity:1;fill-rule:nonzero;stroke:none"
       transform="matrix(0.35277776,0,0,-0.35277776,-482.11631,2798.361)"
       clip-path="url(#clipPath16)" />
    <path
       id="path17"
       d="m -381.08682,84.552986 c -5.09736,0 -9.1736,3.716569 -9.1736,8.160741 0,4.444176 4.07624,8.160743 9.1736,8.160743 5.19658,0 9.27282,-3.716567 9.27282,-8.160743 0,-4.444172 -4.07624,-8.160741 -9.27282,-8.160741 z m 6.52363,24.846034 h -12.94391 l -2.03812,40.34895 h 17.11937 z m 55.63691,-41.531319 h -43.30898 v 62.838539 h 43.30898 v -10.69909 h -26.59476 v -16.04863 h 21.70411 V 93.528149 h -21.70411 V 78.479973 h 24.86257 z m 27.00714,0 h -16.71423 v 62.838539 h 42.49457 l 1.73219,-11.78636 h -27.51253 z m 97.42247,62.838539 h 18.85156 l -17.93379,-26.74772 c 9.16947,-3.71657 13.55163,-8.706444 13.55163,-16.958138 0,-13.055534 -9.88467,-19.132681 -29.04215,-19.132681 h -23.13451 v 62.838539 h 16.71423 v -24.02747 h 6.51949 z M -215.4897,78.29807 h 6.011 c 8.25583,0 12.22871,2.629299 12.22871,8.702312 0,6.618717 -3.87367,9.429914 -11.20758,9.429914 h -7.03213 z m 89.46947,-10.430369 h -43.30898 v 62.838539 h 43.30898 v -10.69909 h -26.59476 v -16.04863 h 21.7041 V 93.528149 h -21.7041 V 78.479973 h 24.86256 z m 39.133524,-1.537891 c -18.343064,0 -32.101404,11.786361 -32.101404,32.820735 0,21.489125 12.94392,33.097725 32.303976,33.097725 9.785449,0 17.429426,-3.89847 22.117511,-8.0698 l -7.441406,-8.52454 c -4.179591,2.8112 -8.255825,5.07669 -13.857551,5.07669 -9.376173,0 -15.59388,-6.43681 -15.59388,-21.580075 0,-15.411978 6.32106,-21.85293 15.387173,-21.85293 4.791439,0 8.764323,1.632975 12.741342,4.353223 l 7.945769,-8.433593 c -5.907652,-4.440039 -12.327932,-6.887435 -21.50153,-6.887435 z m 58.288962,0 c -19.872705,0 -31.79549,12.418881 -31.79549,32.911684 0,20.947556 11.922785,33.006776 31.79549,33.006776 19.9760402,0 31.8987996,-12.42302 31.8987996,-33.006776 0,-20.943424 -11.9227594,-32.911684 -31.8987996,-32.911684 z m 0,10.88099 c 9.479491,0 14.370155,6.163962 14.370155,22.030694 0,15.957686 -4.791428,22.125786 -14.370155,22.125786 -9.169471,0 -14.266845,-6.1681 -14.266845,-22.125786 0,-15.866732 4.890647,-22.030694 14.266845,-22.030694 z M 67.702294,67.867701 H 52.724408 v 25.39173 c 0,10.062439 1.322917,18.314129 2.240668,23.390819 L 34.075412,67.867701 H 13.284948 v 62.838539 h 14.878685 v -23.03115 c 0,-11.604461 -1.322917,-19.947105 -2.141467,-25.66045 l 20.38117,48.6916 H 67.702294 Z M 103.57401,66.32981 c -14.67196,0 -25.474403,7.069334 -25.474403,18.132226 0,9.338965 5.808415,15.143261 21.600723,19.496484 10.29395,2.8112 12.94391,4.89479 12.94391,9.52087 0,4.80384 -4.27881,7.70599 -11.20757,7.70599 -7.032134,0 -12.637984,-2.2655 -17.834577,-6.16397 l -8.458376,8.24756 c 5.808415,4.98988 14.572756,8.9793 26.801443,8.9793 17.62788,0 28.02516,-8.16075 28.02516,-19.85616 0,-11.60859 -7.64395,-16.50338 -20.99303,-20.310902 -11.009134,-3.084047 -13.654967,-4.717025 -13.654967,-8.706446 0,-3.989418 3.666948,-6.163962 9.475397,-6.163962 5.70505,0 10.59984,1.71979 15.49051,5.258594 l 7.74319,-8.069792 C 121.81787,69.136874 114.37645,66.32981 103.57401,66.32981 Z m 83.86776,1.537891 h -54.00809 v 11.42669 h 18.2397 v 51.411849 h 16.71423 V 79.294391 h 17.42531 z m 23.43936,0 h -16.71422 v 62.838539 h 16.71422 z m 61.44743,0 h -54.00808 v 11.42669 h 18.23974 v 51.411849 h 16.71422 V 79.294391 h 17.42528 z m 60.83762,0 h -16.71009 v 41.349409 c 0,8.0698 -3.26182,11.96827 -10.90577,11.96827 -7.54063,0 -10.80245,-3.89847 -10.80245,-11.96827 V 67.867701 h -16.71009 v 41.981929 c 0,13.24157 9.07023,22.39864 27.51254,22.39864 18.44639,0 27.61586,-9.70277 27.61586,-22.39864 z m 66.85276,0 H 382.38693 L 369.34382,95.524925 356.30068,67.867701 h -18.24383 l 22.626,39.352639 v 23.4859 h 16.71009 v -23.57685 z m 49.21663,0 H 405.9266 v 62.838539 h 43.30897 v -10.69909 h -26.59475 v -16.04863 h 21.70412 V 93.528149 H 422.64082 V 78.479973 h 24.86257 z m 64.71027,0 h -14.97789 v 25.39173 c 0,10.062439 1.32292,18.314129 2.24067,23.390819 L 480.31896,67.867701 h -20.79047 v 62.838539 h 14.87869 v -23.03115 c 0,-11.604461 -1.32292,-19.947105 -2.14147,-25.66045 l 20.38117,48.6916 h 21.29896 z m 61.44845,0 h -54.00808 v 11.42669 h 18.2397 v 51.411849 h 16.71426 V 79.294391 h 17.42528 z m 50.03518,0 H 582.1205 v 62.838539 h 43.30897 V 120.00715 H 598.83472 V 103.95852 H 620.5388 V 93.528149 H 598.83472 V 78.479973 h 24.86254 z m -868.02553,89.221429 h -19.67011 v 62.83854 h 21.1956 c 18.03714,0 35.16064,-6.43682 35.16064,-31.7376 0,-25.92917 -17.83457,-31.10094 -36.68613,-31.10094 z m 2.34405,10.79004 c 9.78131,0 17.01601,3.44785 17.01601,20.3109 0,16.68529 -6.7262,20.94756 -16.81344,20.94756 h -5.50251 v -41.25846 z m 87.63495,-10.79004 h -43.30898 v 62.83854 h 43.30898 v -10.69909 h -26.59476 v -16.04863 h 21.7041 v -10.43037 h -21.7041 V 167.7014 h 24.86257 z m 57.169637,-1.53789 c -14.671977,0 -25.474417,7.06933 -25.474417,18.13222 0,9.33897 5.80843,15.14327 21.600752,19.49649 10.293942,2.8112 12.94391,4.89479 12.94391,9.52086 0,4.80384 -4.278806,7.70599 -11.207584,7.70599 -7.032128,0 -12.637988,-2.26549 -17.834568,-6.16396 l -8.4584,8.24756 c 5.80843,4.98987 14.57276,8.97929 26.801465,8.97929 17.627864,0 28.02516,-8.16074 28.02516,-19.85615 0,-11.60859 -7.643975,-16.50338 -20.993032,-20.3109 -11.009143,-3.08405 -13.654983,-4.71703 -13.654983,-8.70645 0,-3.98942 3.66696,-6.16396 9.475395,-6.16396 5.705076,0 10.599868,1.71979 15.490525,5.25859 l 7.743196,-8.06979 c -6.213573,-5.26273 -13.654979,-8.06979 -24.457419,-8.06979 z m 52.278976,1.53789 h -16.714225 v 62.83854 h 16.714225 z m 56.453395,0 h -43.308973 v 62.83854 H 13.284948 V 209.22858 H -13.309803 V 193.17995 H 8.3942845 V 182.74958 H -13.309803 V 167.7014 h 24.862577 z m 75.10755,0 H 67.192777 L 57.308085,199.70771 46.71237,157.08913 H 25.615977 l -5.299921,62.83854 h 16.30493 l 1.223715,-24.39128 c 0.409258,-8.79326 0.409258,-16.59433 -0.305929,-25.84235 l 11.616866,43.61491 h 15.796436 l 10.905807,-43.61491 c -0.512622,7.79694 -0.305929,16.86719 0.202565,25.66045 l 1.22368,24.57318 h 16.404166 z m 38.111392,0 h -22.8286 v 62.83854 h 16.71422 v -20.94756 h 7.64399 c 16.30493,0 27.92179,-6.79648 27.92179,-21.39818 0,-13.78314 -11.2117,-20.4928 -29.4514,-20.4928 z m 0.0992,31.19189 h -6.21358 V 167.7014 h 5.91178 c 8.25172,0 12.43129,3.17087 12.43129,9.88053 0,7.8879 -4.58474,10.69909 -12.12949,10.69909 z m 75.92303,31.64665 h 18.85156 l -17.93381,-26.74772 c 9.16947,-3.71657 13.55164,-8.70645 13.55164,-16.95814 0,-13.05553 -9.88469,-19.13268 -29.04214,-19.13268 h -23.13453 v 62.83854 h 16.71422 v -24.02748 h 6.51951 z M 181.53306,167.5195 h 6.01101 c 8.25581,0 12.22873,2.6293 12.22873,8.70231 0,6.61872 -3.87368,9.42991 -11.20761,9.42991 h -7.03213 z m 89.46948,-10.43037 h -43.30897 v 62.83854 h 43.30897 v -10.69909 h -26.59475 v -16.04863 h 21.70409 V 182.74958 H 244.40779 V 167.7014 h 24.86254 z m 89.06951,0 h -17.63201 l -13.04315,27.65722 -13.04311,-27.65722 h -18.24386 l 22.62603,39.35263 v 23.48591 h 16.71006 v -23.57686 z m 73.36811,0 h -43.30898 v 62.83854 h 43.30898 V 209.22858 H 406.8454 v -16.04863 h 21.70409 V 182.74958 H 406.8454 V 167.7014 h 24.86258 z m 64.71027,0 h -14.97789 v 25.39173 c 0,10.06243 1.32292,18.31413 2.24067,23.39082 l -20.88966,-48.78255 h -20.79047 v 62.83854 h 14.87869 v -23.03115 c 0,-11.60446 -1.32292,-19.94711 -2.14151,-25.66045 l 20.38121,48.6916 h 21.29896 z m 0,0"
       style="fill:#1b181a;fill-opacity:1;fill-rule:nonzero;stroke:none;stroke-width:0.332766"
       aria-label="¡EL RECONSTITUYENTE&#10;DE SIEMPRE Y EN" />
    <path
       id="path18"
       d="m -221.19891,264.62573 h -54.00807 v 11.42669 h 18.23972 v 51.41185 h 16.71422 v -51.41185 h 17.42529 z m 35.25986,-1.53789 c -19.87268,0 -31.79547,12.41888 -31.79547,32.91168 0,20.94756 11.92279,33.00678 31.79547,33.00678 19.97604,0 31.89883,-12.42302 31.89883,-33.00678 0,-20.94342 -11.92279,-32.91168 -31.89883,-32.91168 z m 0,10.88099 c 9.47953,0 14.37019,6.16396 14.37019,22.03069 0,15.95769 -4.79144,22.12579 -14.37019,22.12579 -9.16946,0 -14.26682,-6.1681 -14.26682,-22.12579 0,-15.86673 4.89065,-22.03069 14.26682,-22.03069 z m 61.55283,-9.3431 h -19.67011 v 62.83854 h 21.1956 c 18.03714,0 35.160645,-6.43682 35.160645,-31.7376 0,-25.92916 -17.834565,-31.10094 -36.686135,-31.10094 z m 2.34405,10.79004 c 9.78131,0 17.01601,3.44785 17.01601,20.3109 0,16.68529 -6.7262,20.94756 -16.81344,20.94756 h -5.50251 v -41.25846 z m 72.859628,-12.32793 c -19.872688,0 -31.795472,12.41888 -31.795472,32.91168 0,20.94756 11.922784,33.00678 31.795472,33.00678 19.97604,0 31.898828,-12.42302 31.898828,-33.00678 0,-20.94342 -11.922788,-32.91168 -31.898828,-32.91168 z m 0,10.88099 c 9.479526,0 14.370183,6.16396 14.370183,22.03069 0,15.95769 -4.791438,22.12579 -14.370183,22.12579 -9.169467,0 -14.266827,-6.1681 -14.266827,-22.12579 0,-15.86673 4.890657,-22.03069 14.266827,-22.03069 z m 130.848845,-9.3431 H 60.466575 L 50.581908,307.24432 39.986171,264.62573 H 18.889786 L 13.58985,327.46427 H 29.894797 L 31.118495,303.073 c 0.409279,-8.79327 0.409279,-16.59434 -0.305925,-25.84236 l 11.616862,43.61491 h 15.796453 l 10.905793,-43.61491 c -0.512632,7.79694 -0.305925,16.86719 0.202572,25.66045 l 1.223698,24.57318 h 16.404148 z m 43.817507,-1.53789 c -19.87272,0 -31.795476,12.41888 -31.795476,32.91168 0,20.94756 11.922756,33.00678 31.795476,33.00678 19.97604,0 31.8988,-12.42302 31.8988,-33.00678 0,-20.94342 -11.92276,-32.91168 -31.8988,-32.91168 z m 0,10.88099 c 9.47952,0 14.37015,6.16396 14.37015,22.03069 0,15.95769 -4.79143,22.12579 -14.37015,22.12579 -9.16948,0 -14.26683,-6.1681 -14.26683,-22.12579 0,-15.86673 4.89063,-22.03069 14.26683,-22.03069 z m 106.69735,-9.3431 H 210.9814 l -9.88466,42.61859 -10.59575,-42.61859 h -21.09635 l -5.29996,62.83854 h 16.30496 l 1.22368,-24.39127 c 0.4093,-8.79327 0.4093,-16.59434 -0.30592,-25.84236 l 11.61686,43.61491 h 15.79647 l 10.90577,-43.61491 c -0.51262,7.79694 -0.30592,16.86719 0.20257,25.66045 l 1.22371,24.57318 h 16.40417 z m 58.59176,0 h -43.30897 v 62.83854 h 43.30897 v -10.69909 h -26.59475 v -16.04863 h 21.70409 V 290.28618 H 264.17817 V 275.238 h 24.86254 z m 64.71027,0 h -14.97792 v 25.39173 c 0,10.06244 1.32292,18.31413 2.2407,23.39082 l -20.88969,-48.78255 h -20.79043 v 62.83854 h 14.87865 v -23.03115 c 0,-11.60446 -1.32292,-19.94711 -2.14147,-25.66045 l 20.38121,48.6916 h 21.29895 z m 61.44842,0 h -54.00805 v 11.42669 h 18.2397 v 51.41185 h 16.71422 v -51.41185 h 17.42528 z m 35.25985,-1.53789 c -19.87267,0 -31.79547,12.41888 -31.79547,32.91168 0,20.94756 11.9228,33.00678 31.79547,33.00678 19.97605,0 31.89884,-12.42302 31.89884,-33.00678 0,-20.94342 -11.92279,-32.91168 -31.89884,-32.91168 z m 0,10.88099 c 9.47953,0 14.3702,6.16396 14.3702,22.03069 0,15.95769 -4.79143,22.12579 -14.3702,22.12579 -9.16943,0 -14.26682,-6.1681 -14.26682,-22.12579 0,-15.86673 4.89066,-22.03069 14.26682,-22.03069 z m 56.05036,-9.3431 H 491.1183 l 2.03811,39.71644 h 13.04727 z m -8.56178,47.96813 c -5.09735,0 -9.17359,3.71657 -9.17359,8.16074 0,4.53513 4.07624,8.2517 9.17359,8.2517 5.1966,0 9.27284,-3.71657 9.27284,-8.2517 0,-4.44417 -4.07624,-8.16074 -9.27284,-8.16074 z m 0,0"
       style="fill:#ffffff;fill-opacity:1;fill-rule:nonzero;stroke:none;stroke-width:0.332766"
       aria-label="TODO MOMENTO!" />
  </g>
</svg>
