<?xml version="1.0" encoding="UTF-8" standalone="no"?>
<!-- Created with Inkscape (http://www.inkscape.org/) -->

<svg
   width="920.31323mm"
   height="539.14447mm"
   viewBox="0 0 920.31323 539.14447"
   version="1.1"
   id="svg1"
   inkscape:version="1.4.2 (ebf0e940d0, 2025-05-08)"
   sodipodi:docname="Rumensin.svg"
   xmlns:inkscape="http://www.inkscape.org/namespaces/inkscape"
   xmlns:sodipodi="http://sodipodi.sourceforge.net/DTD/sodipodi-0.dtd"
   xmlns="http://www.w3.org/2000/svg"
   xmlns:svg="http://www.w3.org/2000/svg">
  <sodipodi:namedview
     id="namedview1"
     pagecolor="#ffffff"
     bordercolor="#000000"
     borderopacity="0.25"
     inkscape:showpageshadow="2"
     inkscape:pageopacity="0.0"
     inkscape:pagecheckerboard="0"
     inkscape:deskcolor="#d1d1d1"
     inkscape:document-units="mm"
     inkscape:zoom="0.22399526"
     inkscape:cx="1656.285"
     inkscape:cy="1203.1504"
     inkscape:window-width="1920"
     inkscape:window-height="1003"
     inkscape:window-x="0"
     inkscape:window-y="0"
     inkscape:window-maximized="1"
     inkscape:current-layer="layer1" />
  <defs
     id="defs1" />
  <g
     inkscape:label="Capa 1"
     inkscape:groupmode="layer"
     id="layer1"
     transform="translate(373.59167,180.97501)">
    <path
       id="path5"
       d="M 546.72155,358.16943 H -373.59167 V 245.83158 h 920.31322 z"
       style="fill:#3bb192;fill-opacity:1;fill-rule:nonzero;stroke:none;stroke-width:0.352778" />
    <path
       id="path6"
       d="m -293.23852,-140.03074 -6.08541,28.55433 h 10.70735 c 3.91914,0 7.24297,-0.55914 9.97149,-1.67845 2.72851,-1.12138 4.89686,-2.59209 6.50709,-4.4111 1.60921,-1.81901 2.76366,-3.91708 3.46439,-6.29626 0.6997,-2.38125 1.05007,-4.83071 1.05007,-7.35045 -0.1385,-3.49953 -1.46761,-5.84357 -3.98943,-7.03213 -2.51974,-1.19063 -6.22804,-1.78594 -11.12489,-1.78594 z m 7.97884,115.474083 -7.34632,-40.100909 c -0.70073,-3.778582 -1.36632,-6.822323 -1.99678,-9.132259 -0.62838,-2.308902 -1.39732,-4.127913 -2.30683,-5.457031 -0.9095,-1.331186 -2.02985,-2.205549 -3.36103,-2.625164 -1.32912,-0.421679 -3.04271,-0.63252 -5.14284,-0.63252 l -12.38994,57.947883 h -37.5791 l 31.072,-146.339383 h 50.39072 c 9.09712,0 16.79484,0.73588 23.09316,2.20762 6.30039,1.46968 11.37399,3.63802 15.22181,6.5071 3.8499,2.86907 6.64869,6.33346 8.39639,10.39316 1.74976,4.05763 2.62516,8.60619 2.62516,13.64671 0,4.61987 -0.70073,9.58908 -2.10013,14.90762 -1.39733,5.31647 -3.70623,10.35492 -6.92464,15.11432 -3.21944,4.76043 -7.4197,8.960692 -12.60078,12.60078 -5.17901,3.63802 -11.4763,6.087483 -18.89291,7.346321 1.5379,0.97875 3.42719,2.972428 5.66788,5.982063 2.24069,3.009636 3.92017,6.265252 5.03948,9.764779 0.84026,2.519744 1.85415,5.91385 3.04271,10.182324 1.19063,4.269506 2.41536,8.749852 3.67523,13.440005 1.25883,4.688086 2.41432,9.237679 3.46439,13.646712 1.05006,4.406965 1.85415,7.9406 2.41432,10.599869 z m 165.65707,-110.645433 -15.11846,70.962068 c -1.11931,5.600692 -1.74873,10.990544 -1.88929,16.168522 -0.13849,5.179012 0.49196,10.566797 1.88929,16.164387 l -34.2222,12.179102 c -0.41961,-0.841293 -0.83922,-1.891358 -1.2609,-3.150196 -0.41961,-1.259871 -0.76895,-2.552815 -1.05007,-3.881933 -0.27905,-1.331185 -0.52296,-2.590023 -0.73173,-3.778581 -0.20981,-1.190625 -0.38448,-2.06499 -0.52504,-2.625162 -4.33875,3.63802 -9.27282,6.436816 -14.80426,8.396386 -5.52938,1.95957 -11.37192,2.939355 -17.52865,2.939355 -3.36,0 -6.64972,-0.316259 -9.86813,-0.946712 -3.21944,-0.628385 -6.08851,-1.747697 -8.60722,-3.356901 -2.51975,-1.609204 -4.51446,-3.77858 -5.9862,-6.507096 -1.46968,-2.730582 -2.20348,-6.19497 -2.20348,-10.393163 0,-2.518709 0.24494,-5.597591 0.73587,-9.235612 0.48989,-3.640088 1.36529,-8.541082 2.62516,-14.70091 l 13.43587,-63.404914 37.58323,-4.82864 -15.32929,72.012132 c -0.97875,4.340822 -1.11828,7.456911 -0.41755,9.347235 0.6997,1.888256 2.58899,2.831868 5.66787,2.831868 2.93729,0 5.59553,-0.768945 7.97471,-2.306836 2.38125,-1.539957 4.7625,-4.131014 7.14375,-7.772135 l 14.90348,-69.283624 z m 95.949692,11.54658 c 4.200261,-3.77858 9.064046,-6.71794 14.593425,-8.81807 5.5283486,-2.10013 11.3026502,-3.15019 17.3219208,-3.15019 6.7159012,0 11.9290032,0.87539 15.6393792,2.62516 3.709317,1.7508 6.333454,4.09587 7.871353,7.03626 1.539946,2.93832 2.240668,6.26215 2.100122,9.97149 -0.138501,3.71036 -0.627345,7.52408 -1.467626,11.44322 l -17.007734,79.990983 h -35.061421 l 14.6967608,-69.283624 c 0.980828,-4.20026 1.1906249,-7.280179 0.628403,-9.239739 -0.5601758,-1.95958 -2.3791685,-2.93936 -5.457031,-2.93936 -2.9383208,0 -5.4570308,0.80512 -7.5571628,2.41432 -2.100128,1.61024 -4.339784,4.165124 -6.717936,7.664651 l -15.118454,71.383752 H -73.41112 l 14.696778,-69.283624 c 0.980817,-4.20026 1.296045,-7.280179 0.946711,-9.239739 -0.350365,-1.95958 -2.066022,-2.93936 -5.146971,-2.93936 -2.938321,0 -5.457031,0.77101 -7.557163,2.31097 -2.100128,1.53789 -4.339784,4.127913 -6.717933,7.768001 l -15.329298,71.383752 h -35.478964 l 14.48593,-68.23356 c 1.67845,-8.119403 2.79673,-14.942753 3.3569,-20.472133 0.56224,-5.52834 0.42272,-10.9523 -0.41754,-16.27188 l 32.332904,-6.08954 c 0.278021,1.40043 0.558105,3.18533 0.839227,5.35368 0.281118,2.16937 0.489892,4.23333 0.628385,6.1929 3.640088,-3.21841 8.120433,-5.94693 13.440008,-8.18555 5.318537,-2.24069 11.336774,-3.36103 18.053677,-3.36103 6.159827,0 10.91923,1.15548 14.27923,3.46438 3.358966,2.30994 5.808429,5.14491 7.346321,8.50388 z m 99.102999,31.911226 c 0.559118,0.281118 1.468649,0.5271 2.728489,0.735874 1.258852,0.209804 2.869106,0.314191 4.828646,0.314191 2.100156,0 4.164118,-0.243914 6.192907,-0.731739 2.030907,-0.489892 3.850958,-1.260905 5.461177,-2.31097 1.609195,-1.050064 2.937298,-2.308902 3.985295,-3.778581 1.050043,-1.468642 1.575085,-3.183261 1.575085,-5.142841 0,-5.04052 -2.728528,-7.56129 -8.185541,-7.56129 -4.619872,0 -8.258915,1.68052 -10.918189,5.03948 -2.660297,3.36001 -4.549599,7.838285 -5.667869,13.435876 z m -5.878724,24.358201 c -0.281128,1.119314 -0.457835,2.344042 -0.529166,3.675228 -0.06925,1.329118 -0.103364,2.272732 -0.103364,2.83187 0,5.319571 1.118305,8.888345 3.356927,10.707355 2.240668,1.819011 6.16084,2.728516 11.76154,2.728516 4.618849,0 9.692428,-0.979785 15.221796,-2.939356 5.52834,-1.95957 10.60196,-4.548559 15.22183,-7.768001 l 7.13962,22.886458 c -8.67956,4.897892 -16.86926,8.362279 -24.569063,10.393163 -7.697716,2.027783 -14.345355,3.042708 -19.94295,3.042708 -15.676562,0 -27.11979,-3.183268 -34.329686,-9.549804 -7.207849,-6.368603 -10.810698,-16.482714 -10.810698,-30.340265 0,-9.938413 1.434536,-19.385897 4.303607,-28.343488 2.869071,-8.959659 7.03213,-16.834111 12.489144,-23.622331 5.459094,-6.78822 12.108814,-12.176 19.947113,-16.16439 7.838263,-3.99045 16.796913,-5.98619 26.875879,-5.98619 5.599644,0 10.919214,0.5612 15.957694,1.68258 5.03742,1.11931 9.37616,2.90422 13.01418,5.35368 3.64007,2.45049 6.54533,5.6348 8.7147,9.55394 2.16835,3.91914 3.25357,8.6775 3.25357,14.2751 0,5.038445 -1.15549,9.86709 -3.46442,14.485932 -2.30992,4.619872 -5.74019,8.713677 -10.28979,12.282451 -4.54751,3.569808 -10.21542,6.403746 -17.0036,8.503874 -6.788223,2.100132 -14.591385,3.150196 -23.407372,3.150196 -3.081972,0 -5.777441,-0.07028 -8.086337,-0.210841 -2.309918,-0.140557 -3.883977,-0.349331 -4.721154,-0.628385 z M 178.95691,-123.86635 c 4.20028,-3.63802 9.23978,-6.5071 15.11847,-8.60723 5.87872,-2.10013 11.82564,-3.15019 17.84283,-3.15019 6.71897,0 12.03854,0.87539 15.95769,2.62516 3.91915,1.7508 6.78822,4.09587 8.60724,7.03626 1.82108,2.93832 2.80085,6.26215 2.93935,9.97149 0.14055,3.71036 -0.2098,7.52408 -1.05008,11.44322 l -17.0036,79.990983 h -36.53318 l 14.6968,-69.283624 c 0.98079,-4.20026 1.12137,-7.280179 0.42167,-9.239739 -0.70076,-1.95958 -2.59105,-2.93936 -5.67199,-2.93936 -2.93833,0 -5.5976,0.77101 -7.97885,2.31097 -2.3792,1.53789 -4.75735,4.127913 -7.13549,7.768001 l -15.32929,71.383752 h -36.52905 l 14.48594,-68.23356 c 1.67845,-8.119403 2.79672,-14.942753 3.35689,-20.472133 0.56226,-5.52834 0.42274,-10.9523 -0.41754,-16.27188 l 32.33292,-6.08954 c 0.41858,1.81901 0.80303,3.67419 1.15341,5.56451 0.34932,1.89136 0.59531,3.95532 0.73586,6.19291 z m 95.32133,102.038208 c -7.8383,0 -15.64245,-1.189591 -23.4115,-3.56774 -7.76697,-2.38125 -15.00992,-5.669938 -21.72889,-9.868131 l 16.79688,-24.143228 c 1.67848,1.259871 3.74241,2.590022 6.19291,3.98942 2.44948,1.397331 5.14389,2.621028 8.08221,3.671094 2.94037,1.050064 6.02029,1.925463 9.23974,2.625162 3.21839,0.700732 6.43784,1.050065 9.65729,1.050065 3.07785,0 6.05233,-0.733805 8.92143,-2.203483 2.87112,-1.471744 4.30774,-3.816821 4.30774,-7.036263 0,-2.659269 -1.05008,-4.54856 -3.1502,-5.667871 -2.10012,-1.118277 -5.95104,-2.307868 -11.55072,-3.56774 l -9.02476,-2.100132 c -7.27915,-1.678449 -12.73926,-4.756298 -16.37937,-9.235609 -3.63802,-4.481381 -5.45701,-10.220564 -5.45701,-17.218588 0,-5.037414 1.11827,-10.005584 3.35689,-14.903484 2.24067,-4.89996 5.56553,-9.23974 9.9756,-13.01832 4.40906,-3.78065 9.90226,-6.82646 16.47861,-9.1364 6.57838,-2.3089 14.27716,-3.46438 23.09727,-3.46438 7.69772,0 14.69471,0.80511 20.99303,2.41432 6.3004,1.61024 12.9491,4.09484 19.94711,7.45381 l -16.16438,22.67562 c -4.34082,-2.37815 -8.7509,-4.19716 -13.22916,-5.45704 -4.47933,-1.25883 -8.53694,-1.88929 -12.17496,-1.88929 -0.56018,0 -1.43454,0.0703 -2.62516,0.21084 -1.19063,0.1385 -2.41643,0.4868 -3.67524,1.04593 -1.25988,0.56018 -2.34404,1.40043 -3.25357,2.52181 -0.90949,1.11932 -1.36426,2.65824 -1.36426,4.61781 0.14058,1.54099 0.97981,2.906282 2.51771,4.096907 1.53994,1.188557 4.54956,2.341975 9.02888,3.460252 l 9.65729,2.521811 c 6.997,1.81901 12.49021,4.653978 16.47861,8.503874 3.99044,3.847828 5.98618,9.690364 5.98618,17.528645 0,4.479314 -1.18961,9.272818 -3.56775,14.382583 -2.37917,5.109766 -5.94794,9.870199 -10.70734,14.279232 -4.76045,4.406965 -10.74458,8.081159 -17.95448,11.021548 -7.20781,2.937289 -15.63934,4.406966 -25.29663,4.406966 z M 396.68316,-160.39952 c 0,2.80086 -0.5612,5.46013 -1.68257,7.97884 -1.11933,2.51974 -2.62414,4.72426 -4.51447,6.61458 -1.88824,1.89136 -4.12792,3.36104 -6.71794,4.4111 -2.58795,1.048 -5.35263,1.57097 -8.29303,1.57097 -2.79774,0 -5.45702,-0.52297 -7.97885,-1.57097 -2.51971,-1.05006 -4.72426,-2.51974 -6.61458,-4.4111 -1.88824,-1.89032 -3.39203,-4.09484 -4.5103,-6.61458 -1.11933,-2.51871 -1.67844,-5.17798 -1.67844,-7.97884 0,-2.79673 0.55911,-5.45496 1.67844,-7.97471 1.11827,-2.52181 2.65822,-4.72632 4.61779,-6.61458 1.95958,-1.89032 4.23333,-3.36104 6.82131,-4.4111 2.59003,-1.05007 5.35573,-1.5751 8.29716,-1.5751 5.87869,0 10.77764,1.99575 14.69676,5.9862 3.91914,3.98838 5.87872,8.85114 5.87872,14.58929 z m -67.60517,135.842863 22.67561,-106.656013 37.36826,-3.36104 -23.51482,110.017053 z m 103.29704,-99.309693 c 4.20027,-3.63802 9.23974,-6.5071 15.11846,-8.60723 5.87873,-2.10013 11.82564,-3.15019 17.84283,-3.15019 6.71897,0 12.03854,0.87539 15.95769,2.62516 3.91915,1.7508 6.78822,4.09587 8.60722,7.03626 1.82107,2.93832 2.80087,6.26215 2.93937,9.97149 0.14055,3.71036 -0.20983,7.52408 -1.05007,11.44322 l -17.00361,79.990983 h -36.53317 l 14.69679,-69.283624 c 0.98079,-4.20026 1.12138,-7.280179 0.42168,-9.239739 -0.70076,-1.95958 -2.59109,-2.93936 -5.67203,-2.93936 -2.93833,0 -5.59756,0.77101 -7.97881,2.31097 -2.37921,1.53789 -4.75735,4.127913 -7.1355,7.768001 l -15.32929,71.383752 h -36.52904 l 14.48594,-68.23356 c 1.67844,-8.119403 2.79671,-14.942753 3.35689,-20.472133 0.56226,-5.52834 0.42273,-10.9523 -0.41755,-16.27188 l 32.33293,-6.08954 c 0.41857,1.81901 0.80303,3.67419 1.15341,5.56451 0.34932,1.89136 0.59531,3.95532 0.73586,6.19291 z m 0,0"
       style="fill:#3bb192;fill-opacity:1;fill-rule:nonzero;stroke:none;stroke-width:0.352778"
       aria-label="Rumensin " />
    <path
       id="path7"
       d="m 494.19302,-157.6418 h 5.86246 v 15.63299 h 2.68676 v -15.63299 h 5.7404 v -2.32057 h -14.28962 z"
       style="fill:#3bb192;fill-opacity:1;fill-rule:nonzero;stroke:none;stroke-width:0.352778" />
    <path
       id="path8"
       d="m 515.07785,-142.00863 v -16.244 h 0.12206 l 4.88562,16.244 h 2.19816 l 5.00768,-16.244 h 0.12206 v 16.244 h 2.68676 v -17.95392 h -4.76286 l -3.90842,13.31278 h -0.12206 l -4.27461,-13.31278 h -4.64115 v 17.95392 z"
       style="fill:#3bb192;fill-opacity:1;fill-rule:nonzero;stroke:none;stroke-width:0.352778" />
    <path
       id="path9"
       d="m -324.1927,2.5259316 c -20.6127,0 -28.11198,19.8189414 -28.11198,34.8216434 0,14.688509 8.37158,22.584667 20.8442,22.584667 7.81761,0 13.8989,-3.319694 18.00407,-6.949446 l -4.97334,-7.660514 c -3.31556,2.447396 -6.7138,4.580599 -11.05462,4.580599 -5.92419,0 -9.63249,-3.712435 -9.63249,-12.555306 0,-9.632486 3.55121,-25.267706 15.08125,-25.267706 3.7083,0 6.39548,1.343586 9.15707,3.633887 l 6.8709,-6.7138022 c -3.79099,-4.1837255 -9.07852,-6.4740222 -16.18506,-6.4740222 z m 54.32536,-9.5539414 -3.86953,-9.3968392 -18.16116,9.8681291 2.68303,6.15983129 z m -10.34355,65.6166648 h 13.34492 l -8.52868,-54.7191376 h -15.47812 l -23.92412,54.7191376 h 13.26637 l 4.34082,-11.76569 h 15.87086 z m -13.58057,-21.162531 9.15706,-24.870834 2.36885,24.870834 z M -237.7308,3.8695174 h -17.37155 l -7.65638,54.7191376 h 12.7124 l 2.52595,-18.239713 h 6.00273 c 17.76429,0 24.08122,-11.211718 24.08122,-21.24108 0,-10.1864577 -7.57784,-15.2383446 -20.29437,-15.2383446 z m -3.78685,27.1611306 h -4.65915 l 2.52595,-17.925518 h 4.65914 c 5.52732,0 8.36745,1.976106 8.36745,6.635252 0,4.894791 -2.05052,11.290266 -10.89339,11.290266 z m 48.64096,-28.5047164 c -14.60997,0 -21.24108,8.7643224 -21.24108,17.0573554 0,7.263638 4.18372,11.844236 14.52728,15.316892 6.47815,2.2903 8.60722,4.183724 8.60722,7.739063 0,4.659147 -3.62975,7.420735 -9.63248,7.420735 -5.52732,0 -9.55395,-1.971973 -12.8695,-5.370215 l -7.34632,7.267773 c 4.10931,4.419369 10.50478,7.974707 19.90162,7.974707 17.13177,0 23.37015,-10.186458 23.37015,-19.269107 0,-8.367447 -5.20898,-12.633854 -14.05599,-15.552538 -7.10654,-2.368849 -9.15706,-3.86953 -9.15706,-7.027995 0,-3.790982 3.31556,-6.081282 8.2889,-6.081282 4.18785,0 7.73906,1.343586 11.05462,4.502051 l 6.79235,-6.7923513 c -4.50205,-4.580597 -10.34355,-7.1850881 -18.23971,-7.1850881 z m 68.77616,1.3435858 h -12.71241 l -5.13456,35.9254536 c -0.94672,6.949446 -4.02663,10.50065 -9.94669,10.50065 -5.68854,0 -7.66051,-3.315559 -6.63525,-10.265006 l 5.05602,-36.1610976 h -12.71653 l -5.13044,36.4008766 c -1.57923,11.525911 4.34082,19.661848 18.47536,19.661848 13.97744,0 22.10924,-8.293033 23.60993,-19.426204 z m 22.03276,0 h -12.71654 l -7.65638,54.7191376 h 32.452803 l 2.683037,-10.265006 h -20.92275 z m 48.009469,54.7191376 h 13.344923 L -49.242056,3.8695174 H -64.72018 L -88.644301,58.588655 h 13.266373 l 4.340821,-11.76569 h 15.870865 z m -13.580565,-21.162531 9.157063,-24.870834 2.368846,24.870834 z m 0,0"
       style="fill:#3bb192;fill-opacity:1;fill-rule:nonzero;stroke:none;stroke-width:0.352778"
       aria-label="CÁPSULA" />
    <path
       id="path10"
       d="m -118.58976,233.89784 h -13.05553 l 2.36471,-30.01367 c 0.82062,-11.44323 1.84899,-21.24109 3.08405,-29.39356 l -19.93883,51.6971 h -12.84883 l -6.47402,-51.49453 c -0.47956,8.15558 -1.95337,18.19424 -4.41937,30.11703 l -5.65547,29.08763 h -13.0514 l 15.51947,-71.02409 h 16.54886 l 5.75468,50.26256 18.60352,-50.26256 h 17.98753 z m 51.287826,0 -2.054655,-16.44551 h -23.436297 l -6.577375,16.44551 H -113.3477 l 31.86162,-71.02409 h 16.445504 l 11.819435,71.02409 z m -21.377507,-26.72292 h 18.090885 l -4.216795,-34.43304 z m 27.136329,-68.96943 4.109307,10.28154 -24.052275,8.22276 -2.773994,-6.68073 z m 46.659681,23.12624 c 9.1829003,0 16.6863175,2.98069 22.5102514,8.94208 l -7.60677042,7.40007 c -2.19108148,-2.05259 -4.45243988,-3.55947 -6.78408218,-4.51859 -2.3295714,-0.96118 -4.9319988,-1.4428 -7.8093428,-1.4428 -3.702099,0 -6.700364,0.85783 -8.995833,2.57142 -2.293397,1.71462 -3.439583,4.04523 -3.439583,6.99078 0,1.64331 0.376206,3.01274 1.128614,4.10931 0.754475,1.09761 2.006081,2.12494 3.753778,3.08405 1.746662,0.95912 4.299479,1.98748 7.656378,3.08405 5.9613935,1.85002 10.5171866,4.28191 13.66738266,7.29671 3.15226334,3.01584 4.72942684,7.19543 4.72942684,12.53877 0,4.04317 -1.0283613,7.89823 -3.0840502,11.56312 -2.0567226,3.66593 -5.2771955,6.66419 -9.6614257,8.99583 -4.3852606,2.32854 -9.9012016,3.49333 -16.5488576,3.49333 -10.277411,0 -18.43195,-3.32383 -24.461557,-9.97148 l 8.016049,-7.80935 c 2.262396,2.32958 4.746995,4.09278 7.45381,5.29167 2.705777,1.19889 5.806362,1.79834 9.301754,1.79834 4.590937,0 8.206218,-1.04386 10.843782,-3.13366 2.637567,-2.08876 3.95635,-4.94957 3.95635,-8.58242 0,-2.60449 -0.874367,-4.71082 -2.62103,-6.32106 -1.747696,-1.6092 -4.882388,-3.20187 -9.405111,-4.77904 -6.510196,-2.19314 -11.256158,-4.78007 -14.237889,-7.75973 -2.979663,-2.98173 -4.468978,-6.83576 -4.468978,-11.56312 0,-3.5636 0.993221,-6.97218 2.980697,-10.2278 1.986442,-3.25458 4.949568,-5.90971 8.888345,-7.96643 3.940845,-2.05569 8.68681,-3.08405 14.237892,-3.08405 z m 76.473879,1.54202 -8.429459,59.92399 h 27.954882 l -2.980697,11.1001 H 38.154155 l 9.971485,-71.02409 z m 52.316182,0 -9.97148,71.02409 H 90.470338 l 9.971482,-71.02409 z m 62.48922,0 -2.98069,10.79417 h -18.29348 l -8.42945,60.22992 h -13.46481 l 8.42946,-60.22992 H 122.7433 l 1.54203,-10.79417 z m 55.71027,18.29759 c 0,4.79557 -1.32083,9.14673 -3.96046,13.0514 -2.63758,3.9057 -7.00528,6.92051 -13.10104,9.04544 l 13.87412,30.62966 h -14.80016 l -11.71606,-28.47165 h -8.83874 l -4.0101,28.47165 h -13.46479 l 9.97148,-71.02409 h 20.76153 c 8.35918,0 14.66162,1.56063 18.90942,4.67982 4.24988,3.11712 6.3748,7.65638 6.3748,13.61777 z m -37.20701,14.49007 h 8.63201 c 5.13976,0 8.85734,-1.38596 11.15385,-4.15892 2.29549,-2.77502 3.44371,-6.04821 3.44371,-9.81852 0,-3.15226 -1.0118,-5.43016 -3.03442,-6.83369 -2.02057,-1.4056 -5.19038,-2.1084 -9.50849,-2.1084 h -7.49928 z m 80.9935,-34.32968 c 8.28993,0 14.76397,2.51974 19.42208,7.55716 4.66016,5.03535 6.99078,12.1791 6.99078,21.43124 0,7.05591 -1.19891,14.02706 -3.59671,20.91449 -2.39776,6.88744 -6.30347,12.64419 -11.71606,17.2682 -5.41363,4.62504 -12.36825,6.93704 -20.86487,6.93704 -8.29303,0 -14.77017,-2.51768 -19.43033,-7.55303 -4.65811,-5.03742 -6.98665,-12.14706 -6.98665,-21.32789 0,-6.98872 1.19888,-13.92577 3.59667,-20.81113 2.39984,-6.88744 6.30657,-12.67727 11.7202,-17.37155 5.41259,-4.69636 12.36722,-7.04453 20.86489,-7.04453 z m -0.82271,10.38076 c -5.27822,0 -9.5281,1.93683 -12.7496,5.80843 -3.21945,3.87263 -5.47977,8.53281 -6.77993,13.98157 -1.30122,5.4467 -1.95132,10.7394 -1.95132,15.87914 0,11.78532 4.41939,17.67747 13.2581,17.67747 5.34334,0 9.60871,-1.9358 12.7951,-5.80843 3.18534,-3.8716 5.42911,-8.53075 6.73033,-13.97744 1.30327,-5.44877 1.95545,-10.77557 1.95545,-15.98249 0,-6.09885 -1.11414,-10.55232 -3.34038,-13.36146 -2.22726,-2.8112 -5.5335,-4.21679 -9.91775,-4.21679 z m 64.85392,-10.38076 c 9.18292,0 16.68632,2.98069 22.51026,8.94208 l -7.60677,7.40007 c -2.19107,-2.05259 -4.45244,-3.55947 -6.78406,-4.51859 -2.3296,-0.96118 -4.93201,-1.4428 -7.80937,-1.4428 -3.70208,0 -6.70034,0.85783 -8.99583,2.57142 -2.29338,1.71462 -3.43959,4.04523 -3.43959,6.99078 0,1.64331 0.37621,3.01274 1.12865,4.10931 0.75445,1.09761 2.00607,2.12494 3.75376,3.08405 1.74664,0.95912 4.29948,1.98748 7.65637,3.08405 5.96138,1.85002 10.51719,4.28191 13.66739,7.29671 3.15225,3.01584 4.72941,7.19543 4.72941,12.53877 0,4.04317 -1.02835,7.89823 -3.08402,11.56312 -2.05673,3.66593 -5.2772,6.66419 -9.66145,8.99583 -4.38524,2.32854 -9.9012,3.49333 -16.54884,3.49333 -10.27741,0 -18.43197,-3.32383 -24.46158,-9.97148 l 8.01607,-7.80935 c 2.2624,2.32958 4.74697,4.09278 7.4538,5.29167 2.70577,1.19889 5.80637,1.79834 9.30176,1.79834 4.59095,0 8.20621,-1.04386 10.84379,-3.13366 2.63755,-2.08876 3.95633,-4.94957 3.95633,-8.58242 0,-2.60449 -0.87435,-4.71082 -2.62103,-6.32106 -1.74769,-1.6092 -4.88237,-3.20187 -9.40509,-4.77904 -6.51019,-2.19314 -11.25618,-4.78007 -14.2379,-7.75973 -2.97966,-2.98173 -4.46899,-6.83576 -4.46899,-11.56312 0,-3.5636 0.99325,-6.97218 2.98069,-10.2278 1.98646,-3.25458 4.94958,-5.90971 8.88838,-7.96643 3.94085,-2.05569 8.6868,-3.08405 14.23786,-3.08405 z m 0,0"
       style="fill:#140e0c;fill-opacity:1;fill-rule:nonzero;stroke:none;stroke-width:0.352778"
       aria-label="MÁS LITROS" />
    <g
       id="g10"
       aria-label="POR VACA POR DÍA"
       transform="matrix(0.35277776,0,0,0.35277776,-344.71327,338.63403)">
      <path
         id="path11"
         d="m 99.058208,-201.32943 c 23.115232,0 41.033202,4.61426 53.753902,13.83984 12.72657,9.22852 19.08985,22.87207 19.08985,40.9336 0,13.40625 -2.96485,25.83984 -8.89453,37.30078 -5.92383,11.460936 -15.43946,20.833006 -28.54688,28.11328 -13.11035,7.283203 -29.86523,10.921875 -50.261717,10.921875 H 60.59727 L 50.694926,-0.00130535 H 12.526958 L 40.792583,-201.32943 Z M 84.198833,-99.059899 c 17.484377,0 29.815427,-4.464841 36.996097,-13.394531 7.18652,-8.93555 10.78125,-19.91309 10.78125,-32.92969 0,-9.70898 -3.0586,-16.74902 -9.17578,-21.11719 -6.11719,-4.37402 -15.09961,-6.5625 -26.941411,-6.5625 H 74.882426 L 64.675395,-99.059899 Z M 289.60801,-205.70052 c 23.49903,0 41.85059,7.14257 55.05469,21.42187 13.20996,14.27344 19.81641,34.52344 19.81641,60.75 0,20.00098 -3.39844,39.76172 -10.19532,59.285157 -6.79687,19.523438 -17.86816,35.841797 -33.21093,48.949219 -15.34571,13.1103515 -35.05957,19.6640624 -59.14454,19.6640624 -23.50781,0 -41.86816,-7.1367188 -55.07812,-21.4101564 -13.2041,-14.279297 -19.80469,-34.432617 -19.80469,-60.457031 0,-19.810547 3.39844,-39.474611 10.19531,-58.992191 6.80274,-19.52343 17.87696,-35.93554 33.22266,-49.24218 15.34277,-13.3125 35.05664,-19.96875 59.14453,-19.96875 z m -2.33203,29.42578 c -14.96191,0 -27.00879,5.49023 -36.14062,16.46484 -9.12598,10.97754 -15.53321,24.1875 -19.21875,39.63281 -3.68848,15.43946 -5.53125,30.442386 -5.53125,45.011722 0,33.407227 12.52734,50.109375 37.58203,50.109375 15.14648,0 27.2373,-5.487305 36.26953,-16.464844 9.0293,-10.974609 15.38965,-24.18164 19.07812,-39.621093 3.69434,-15.445313 5.54297,-30.54492 5.54297,-45.30469 0,-17.28808 -3.1582,-29.91211 -9.46875,-37.875 -6.31347,-7.96875 -15.68554,-11.95312 -28.11328,-11.95312 z m 258.7207,26.8125 c 0,13.59375 -3.74414,25.92773 -11.22656,36.99609 -7.47656,11.07129 -19.85742,19.617188 -37.13672,25.640626 l 39.32813,86.82421865 H 495.0084 L 461.79747,-80.708337 H 436.74278 L 425.37559,-0.00130535 H 387.20762 L 415.47325,-201.32943 h 58.85156 c 23.69531,0 41.56055,4.42383 53.60156,13.26562 12.04688,8.83594 18.07031,21.70313 18.07031,38.60157 z m -105.46875,41.07422 h 24.46875 c 14.56934,0 25.10743,-3.92872 31.61719,-11.78907 6.50684,-7.86621 9.76172,-17.14453 9.76172,-27.83203 0,-8.93554 -2.86816,-15.39258 -8.60156,-19.37109 -5.72754,-3.98438 -14.71289,-5.97656 -26.95313,-5.97656 h -21.25781 z m 0,0"
         style="fill:#ffffff;fill-opacity:1;fill-rule:nonzero;stroke:none" />
      <path
         id="path12"
         d="m 811.41758,-202.48959 h -54.77343 l -54.1875,163.16016 -11.36719,-163.16016 H 635.73008 L 663.1168,-0.00130535 h 67.01953 z m 88.86328,202.48828465 h 55.94532 L 925.62852,-202.48959 H 861.81993 L 774.71446,-0.00130535 h 55.0664 L 844.0543,-41.368493 h 53.02735 z M 857.46055,-79.82943 l 30.29297,-87.70313 6.70313,87.70313 z m 222.00005,-127.91016 c -77.7891,0 -105.75005,73.13672 -105.75005,129.070316 0,54.773437 30.58595,83.9179686 80.40235,83.9179686 27.3984,0 50.9883,-12.5390625 67.0195,-26.8124996 l -19.8164,-31.464844 c -12.5273,9.328125 -24.7617,17.484375 -40.207,17.484375 -20.3906,0 -32.625,-13.40625 -32.625,-43.417969 0,-32.917967 11.6484,-89.437497 51.5625,-89.437497 13.4062,0 23.3086,4.94531 32.3437,13.98047 l 28.8399,-28.25391 c -14.2735,-16.03125 -34.6641,-25.06641 -61.7695,-25.06641 z m 162.5771,207.73828465 h 55.9453 L 1267.3854,-202.48959 h -63.8086 l -87.1055,202.48828465 h 55.0664 l 14.2734,-41.36718765 h 53.0274 z m -42.8203,-79.82812465 30.293,-87.70313 6.7031,87.70313 z m 0,0"
         style="fill:#ffffff;fill-opacity:1;fill-rule:nonzero;stroke:none" />
      <path
         id="path13"
         d="m 1475.7066,-201.32943 c 23.1153,0 41.0332,4.61426 53.754,13.83984 12.7265,9.22852 19.0898,22.87207 19.0898,40.9336 0,13.40625 -2.9648,25.83984 -8.8945,37.30078 -5.9239,11.460936 -15.4395,20.833006 -28.5469,28.11328 -13.1104,7.283203 -29.8652,10.921875 -50.2617,10.921875 h -23.6016 l -9.9023,70.21874965 h -38.168 L 1417.441,-201.32943 Z m -14.8593,102.269531 c 17.4843,0 29.8154,-4.464841 36.9961,-13.394531 7.1865,-8.93555 10.7812,-19.91309 10.7812,-32.92969 0,-9.70898 -3.0586,-16.74902 -9.1758,-21.11719 -6.1172,-4.37402 -15.0996,-6.5625 -26.9414,-6.5625 h -20.9765 l -10.2071,74.003911 z m 205.4091,-106.640621 c 23.4991,0 41.8506,7.14257 55.0547,21.42187 13.21,14.27344 19.8164,34.52344 19.8164,60.75 0,20.00098 -3.3984,39.76172 -10.1953,59.285157 -6.7968,19.523438 -17.8681,35.841797 -33.2109,48.949219 -15.3457,13.1103515 -35.0596,19.6640624 -59.1445,19.6640624 -23.5079,0 -41.8682,-7.1367188 -55.0782,-21.4101564 -13.2041,-14.279297 -19.8047,-34.432617 -19.8047,-60.457031 0,-19.810547 3.3985,-39.474611 10.1954,-58.992191 6.8027,-19.52343 17.8769,-35.93554 33.2226,-49.24218 15.3428,-13.3125 35.0567,-19.96875 59.1445,-19.96875 z m -2.332,29.42578 c -14.9619,0 -27.0088,5.49023 -36.1406,16.46484 -9.126,10.97754 -15.5332,24.1875 -19.2188,39.63281 -3.6884,15.43946 -5.5312,30.442386 -5.5312,45.011722 0,33.407227 12.5273,50.109375 37.582,50.109375 15.1465,0 27.2373,-5.487305 36.2696,-16.464844 9.0293,-10.974609 15.3896,-24.18164 19.0781,-39.621093 3.6943,-15.445313 5.5429,-30.54492 5.5429,-45.30469 0,-17.28808 -3.1582,-29.91211 -9.4687,-37.875 -6.3135,-7.96875 -15.6855,-11.95312 -28.1133,-11.95312 z m 258.7207,26.8125 c 0,13.59375 -3.7441,25.92773 -11.2265,36.99609 -7.4766,11.07129 -19.8575,19.617188 -37.1368,25.640626 l 39.3282,86.82421865 h -41.9532 L 1838.4459,-80.708337 h -25.0547 l -11.3672,80.70703165 h -38.1679 L 1792.1217,-201.32943 h 58.8515 c 23.6954,0 41.5606,4.42383 53.6016,13.26562 12.0469,8.83594 18.0703,21.70313 18.0703,38.60157 z m -105.4687,41.07422 h 24.4687 c 14.5694,0 25.1074,-3.92872 31.6172,-11.78907 6.5068,-7.86621 9.7617,-17.14453 9.7617,-27.83203 0,-8.93554 -2.8681,-15.39258 -8.6015,-19.37109 -5.7276,-3.98438 -14.7129,-5.97656 -26.9532,-5.97656 h -21.2578 z m 272.7099,-92.94141 c 27.1875,0 48.9375,5.54004 65.25,16.61719 16.3184,11.07129 24.4805,30.97851 24.4805,59.71875 0,23.11816 -3.7383,44.047849 -11.2148,62.78906 -7.4766,18.74414 -19.5206,33.796875 -36.1289,45.164062 -16.6114,11.3613283 -38.1211,17.03906265 -64.5352,17.03906265 h -54.7734 L 2041.2301,-201.32943 Z m -14.5664,28.85156 -20.1093,143.636721 h 18.0585 c 16.3184,0 29.5313,-4.757813 39.6329,-14.273438 10.1015,-9.521484 17.2382,-21.565429 21.4101,-36.128906 4.1777,-14.569336 6.2695,-29.917967 6.2695,-46.042967 0,-18.45117 -4.1806,-30.92871 -12.539,-37.42969 -8.3526,-6.50684 -20.0039,-9.76172 -34.957,-9.76172 z m 193.749,-28.85156 -28.2656,201.32812465 h -38.1679 L 2230.901,-201.32943 Z m 13.9805,-69.92578 11.6485,29.14453 -68.1797,23.30859 -7.8633,-18.9375 z m 112.752,271.25390465 -5.8242,-46.61718765 h -66.4336 l -18.6446,46.61718765 h -39.6211 L 2355.5943,-201.32943 h 46.6172 l 33.5039,201.32812465 z M 2335.2037,-75.751305 h 51.2813 l -11.9532,-97.605465 z m 0,0"
         style="fill:#ffffff;fill-opacity:1;fill-rule:nonzero;stroke:none" />
    </g>
  </g>
</svg>
