<?xml version="1.0" encoding="UTF-8" standalone="no"?>
<!-- Created with Inkscape (http://www.inkscape.org/) -->

<svg
   width="860.47913mm"
   height="137.39084mm"
   viewBox="0 0 860.47913 137.39084"
   version="1.1"
   id="svg1"
   inkscape:version="1.4.2 (ebf0e940d0, 2025-05-08)"
   sodipodi:docname="TrucidLogo.svg"
   xmlns:inkscape="http://www.inkscape.org/namespaces/inkscape"
   xmlns:sodipodi="http://sodipodi.sourceforge.net/DTD/sodipodi-0.dtd"
   xmlns="http://www.w3.org/2000/svg"
   xmlns:svg="http://www.w3.org/2000/svg">
  <sodipodi:namedview
     id="namedview1"
     pagecolor="#ffffff"
     bordercolor="#000000"
     borderopacity="0.25"
     inkscape:showpageshadow="2"
     inkscape:pageopacity="0.0"
     inkscape:pagecheckerboard="0"
     inkscape:deskcolor="#d1d1d1"
     inkscape:document-units="mm"
     inkscape:zoom="0.21380145"
     inkscape:cx="1599.615"
     inkscape:cy="142.65572"
     inkscape:window-width="1920"
     inkscape:window-height="1003"
     inkscape:window-x="0"
     inkscape:window-y="0"
     inkscape:window-maximized="1"
     inkscape:current-layer="layer1" />
  <defs
     id="defs1">
    <clipPath
       clipPathUnits="userSpaceOnUse"
       id="clipPath6">
      <path
         d="M 0,6179.527 H 3061.417 V 0 H 0 Z"
         transform="translate(-2605.8277,-3680.4439)"
         id="path6" />
    </clipPath>
    <clipPath
       clipPathUnits="userSpaceOnUse"
       id="clipPath8">
      <path
         d="M 0,6179.527 H 3061.417 V 0 H 0 Z"
         transform="translate(-2675.3203,-3746.5685)"
         id="path8" />
    </clipPath>
    <clipPath
       clipPathUnits="userSpaceOnUse"
       id="clipPath10">
      <path
         d="M 0,6179.527 H 3061.417 V 0 H 0 Z"
         transform="translate(-1971.3369,-3657.6515)"
         id="path10" />
    </clipPath>
    <clipPath
       clipPathUnits="userSpaceOnUse"
       id="clipPath12">
      <path
         d="M 0,6179.527 H 3061.417 V 0 H 0 Z"
         transform="translate(0,-2.5e-5)"
         id="path12" />
    </clipPath>
    <clipPath
       clipPathUnits="userSpaceOnUse"
       id="clipPath14">
      <path
         d="M 0,6179.527 H 3061.417 V 0 H 0 Z"
         transform="translate(-2074.7328,-3677.3348)"
         id="path14" />
    </clipPath>
    <clipPath
       clipPathUnits="userSpaceOnUse"
       id="clipPath16">
      <path
         d="M 0,6179.527 H 3061.417 V 0 H 0 Z"
         transform="translate(-2160.8125,-3686.6678)"
         id="path16" />
    </clipPath>
    <clipPath
       clipPathUnits="userSpaceOnUse"
       id="clipPath18">
      <path
         d="M 0,6179.527 H 3061.417 V 0 H 0 Z"
         transform="translate(-2197.5703,-3722.2831)"
         id="path18" />
    </clipPath>
    <clipPath
       clipPathUnits="userSpaceOnUse"
       id="clipPath20">
      <path
         d="M 0,6179.527 H 3061.417 V 0 H 0 Z"
         transform="translate(-2307.9343,-3722.2831)"
         id="path20" />
    </clipPath>
    <clipPath
       clipPathUnits="userSpaceOnUse"
       id="clipPath22">
      <path
         d="M 0,6179.527 H 3061.417 V 0 H 0 Z"
         transform="translate(-2361.502,-3705.9696)"
         id="path22" />
    </clipPath>
    <clipPath
       clipPathUnits="userSpaceOnUse"
       id="clipPath24">
      <path
         d="M 0,6179.527 H 3061.417 V 0 H 0 Z"
         transform="translate(0,-2.5e-5)"
         id="path24" />
    </clipPath>
    <clipPath
       clipPathUnits="userSpaceOnUse"
       id="clipPath26">
      <path
         d="M 0,6179.527 H 3061.417 V 0 H 0 Z"
         transform="translate(-2442.3721,-3745.2955)"
         id="path26" />
    </clipPath>
    <clipPath
       clipPathUnits="userSpaceOnUse"
       id="clipPath28">
      <path
         d="M 0,6179.527 H 3061.417 V 0 H 0 Z"
         transform="translate(-2447.3607,-3746.2589)"
         id="path28" />
    </clipPath>
    <clipPath
       clipPathUnits="userSpaceOnUse"
       id="clipPath30">
      <path
         d="M 0,6179.527 H 3061.417 V 0 H 0 Z"
         transform="translate(-1836.7993,-3726.3863)"
         id="path30" />
    </clipPath>
    <clipPath
       clipPathUnits="userSpaceOnUse"
       id="clipPath32">
      <path
         d="M 0,6179.527 H 3061.417 V 0 H 0 Z"
         transform="translate(-1066.8033,-3726.3863)"
         id="path32" />
    </clipPath>
    <clipPath
       clipPathUnits="userSpaceOnUse"
       id="clipPath34">
      <path
         d="M 0,6179.527 H 3061.417 V 0 H 0 Z"
         transform="translate(-895.16485,-3680.0294)"
         id="path34" />
    </clipPath>
    <clipPath
       clipPathUnits="userSpaceOnUse"
       id="clipPath36">
      <path
         d="M 0,6179.527 H 3061.417 V 0 H 0 Z"
         transform="translate(-532.54012,-3631.0658)"
         id="path36" />
    </clipPath>
    <clipPath
       clipPathUnits="userSpaceOnUse"
       id="clipPath38">
      <path
         d="M 0,6179.527 H 3061.417 V 0 H 0 Z"
         transform="translate(-509.65231,-3696.8592)"
         id="path38" />
    </clipPath>
    <clipPath
       clipPathUnits="userSpaceOnUse"
       id="clipPath40">
      <path
         d="M 0,6179.527 H 3061.417 V 0 H 0 Z"
         transform="translate(-795.57609,-3631.0658)"
         id="path40" />
    </clipPath>
    <clipPath
       clipPathUnits="userSpaceOnUse"
       id="clipPath42">
      <path
         d="M 0,6179.527 H 3061.417 V 0 H 0 Z"
         transform="translate(-643.69832,-3631.0755)"
         id="path42" />
    </clipPath>
    <clipPath
       clipPathUnits="userSpaceOnUse"
       id="clipPath44">
      <path
         d="M 0,6179.527 H 3061.417 V 0 H 0 Z"
         transform="translate(-419.52641,-3708.923)"
         id="path44" />
    </clipPath>
    <clipPath
       clipPathUnits="userSpaceOnUse"
       id="clipPath46">
      <path
         d="M 0,6179.527 H 3061.417 V 0 H 0 Z"
         transform="translate(-927.7054,-3678.9728)"
         id="path46" />
    </clipPath>
    <clipPath
       clipPathUnits="userSpaceOnUse"
       id="clipPath48">
      <path
         d="M 0,6179.527 H 3061.417 V 0 H 0 Z"
         transform="translate(-899.1322,-3679.6808)"
         id="path48" />
    </clipPath>
    <clipPath
       clipPathUnits="userSpaceOnUse"
       id="clipPath50">
      <path
         d="M 0,6179.527 H 3061.417 V 0 H 0 Z"
         transform="translate(-756.20012,-3631.0658)"
         id="path50" />
    </clipPath>
    <clipPath
       clipPathUnits="userSpaceOnUse"
       id="clipPath52">
      <path
         d="M 0,6179.527 H 3061.417 V 0 H 0 Z"
         transform="translate(-513.58711,-3696.2438)"
         id="path52" />
    </clipPath>
    <clipPath
       clipPathUnits="userSpaceOnUse"
       id="clipPath54">
      <path
         d="M 0,6179.527 H 3061.417 V 0 H 0 Z"
         transform="translate(-770.00664,-3627.0863)"
         id="path54" />
    </clipPath>
    <clipPath
       clipPathUnits="userSpaceOnUse"
       id="clipPath56">
      <path
         d="M 0,6179.527 H 3061.417 V 0 H 0 Z"
         transform="translate(-621.46061,-3656.9728)"
         id="path56" />
    </clipPath>
    <clipPath
       clipPathUnits="userSpaceOnUse"
       id="clipPath58">
      <path
         d="M 0,6179.527 H 3061.417 V 0 H 0 Z"
         transform="translate(-319.98521,-3704.942)"
         id="path58" />
    </clipPath>
    <clipPath
       clipPathUnits="userSpaceOnUse"
       id="clipPath60">
      <path
         d="M 0,6179.527 H 3061.417 V 0 H 0 Z"
         transform="translate(-903.09295,-3679.3346)"
         id="path60" />
    </clipPath>
    <clipPath
       clipPathUnits="userSpaceOnUse"
       id="clipPath62">
      <path
         d="M 0,6179.527 H 3061.417 V 0 H 0 Z"
         transform="translate(-705.28612,-3730.4022)"
         id="path62" />
    </clipPath>
    <clipPath
       clipPathUnits="userSpaceOnUse"
       id="clipPath64">
      <path
         d="M 0,6179.527 H 3061.417 V 0 H 0 Z"
         transform="translate(-938.3269,-3719.9925)"
         id="path64" />
    </clipPath>
    <clipPath
       clipPathUnits="userSpaceOnUse"
       id="clipPath66">
      <path
         d="M 0,6179.527 H 3061.417 V 0 H 0 Z"
         transform="translate(-950.5069,-3719.9925)"
         id="path66" />
    </clipPath>
    <clipPath
       clipPathUnits="userSpaceOnUse"
       id="clipPath68">
      <path
         d="M 0,6179.527 H 3061.417 V 0 H 0 Z"
         transform="translate(-1752.2739,-3655.1637)"
         id="path68" />
    </clipPath>
    <clipPath
       clipPathUnits="userSpaceOnUse"
       id="clipPath70">
      <path
         d="M 0,6179.527 H 3061.417 V 0 H 0 Z"
         transform="translate(-1712.2086,-3669.8285)"
         id="path70" />
    </clipPath>
    <clipPath
       clipPathUnits="userSpaceOnUse"
       id="clipPath72">
      <path
         d="M 0,6179.527 H 3061.417 V 0 H 0 Z"
         transform="translate(-1136.3542,-3848.1603)"
         id="path72" />
    </clipPath>
    <clipPath
       clipPathUnits="userSpaceOnUse"
       id="clipPath74">
      <path
         d="M 0,6179.527 H 3061.417 V 0 H 0 Z"
         transform="translate(-1187.1469,-3908.548)"
         id="path74" />
    </clipPath>
    <clipPath
       clipPathUnits="userSpaceOnUse"
       id="clipPath76">
      <path
         d="M 0,6179.527 H 3061.417 V 0 H 0 Z"
         transform="translate(-1224.2578,-3882.4227)"
         id="path76" />
    </clipPath>
    <clipPath
       clipPathUnits="userSpaceOnUse"
       id="clipPath78">
      <path
         d="M 0,6179.527 H 3061.417 V 0 H 0 Z"
         transform="translate(-1273.6809,-3893.4728)"
         id="path78" />
    </clipPath>
    <clipPath
       clipPathUnits="userSpaceOnUse"
       id="clipPath80">
      <path
         d="M 0,6179.527 H 3061.417 V 0 H 0 Z"
         transform="translate(-1299.2928,-3847.0472)"
         id="path80" />
    </clipPath>
    <clipPath
       clipPathUnits="userSpaceOnUse"
       id="clipPath82">
      <path
         d="M 0,6179.527 H 3061.417 V 0 H 0 Z"
         transform="translate(-1332.2253,-3861.5228)"
         id="path82" />
    </clipPath>
  </defs>
  <g
     inkscape:label="Capa 1"
     inkscape:groupmode="layer"
     id="layer1"
     transform="translate(370.41667,-36.777068)">
    <path
       id="path4"
       d="m 414.01296,114.99187 -2.80846,-9.66047 h -0.091 l -3.03107,9.66047 z m -7.59883,-20.166188 h 9.44562 l 11.42365,31.367588 h -10.01748 l -1.31868,-4.48416 h -9.97373 l -1.40265,4.48416 h -9.70774 z"
       style="fill:#231f20;fill-opacity:1;fill-rule:nonzero;stroke:none;stroke-width:0.352778" />
    <path
       id="path5"
       d="m 0,0 h 10.708 c 16.934,0 19.547,13.826 19.547,22.159 0,5.597 -1.621,21.168 -21.54,21.168 H 0 Z m -27.394,66.126 h 44.948 c 29.511,0 40.095,-21.931 40.095,-44.328 0,-27.395 -14.435,-44.587 -45.444,-44.587 h -39.599 z"
       style="fill:#231f20;fill-opacity:1;fill-rule:nonzero;stroke:none"
       transform="matrix(0.35277776,0,0,-0.35277776,439.10099,118.15412)"
       clip-path="url(#clipPath6)" />
    <path
       id="path7"
       d="M 0,0 H 73.592 V -22.799 H 27.395 v -11.07 H 69.358 V -55.037 H 27.395 v -11.09 h 47.57 V -88.916 H 0 Z"
       style="fill:#231f20;fill-opacity:1;fill-rule:nonzero;stroke:none"
       transform="matrix(0.35277776,0,0,-0.35277776,463.61646,94.826836)"
       clip-path="url(#clipPath8)" />
    <path
       id="path9"
       d="m 0,0 h -30.642 l -26.522,88.919 h 27.647 l 14.572,-53.927 h 0.247 l 14.325,53.927 h 28.146 z"
       style="fill:#231f20;fill-opacity:1;fill-rule:nonzero;stroke:none"
       transform="matrix(0.35277776,0,0,-0.35277776,215.26675,126.19478)"
       clip-path="url(#clipPath10)" />
    <path
       id="path11"
       d="m 2004.232,3722.282 h 24.656 v -64.63 h -24.656 z m 24.662,6.979 h -24.656 v 17.31 h 24.656 z"
       style="fill:#231f20;fill-opacity:1;fill-rule:nonzero;stroke:none"
       transform="matrix(0.35277776,0,0,-0.35277776,-480.17707,1416.5329)"
       clip-path="url(#clipPath12)" />
    <path
       id="path13"
       d="m 0,0 c 9.097,0 10.09,8.706 10.09,15.932 0,7.099 -3.364,12.701 -10.71,12.701 -7.099,0 -10.463,-5.975 -10.463,-12.821 C -11.083,8.459 -8.838,0 0,0 m 34.126,-11.341 c 0,-12.948 -3.363,-30.883 -33.627,-30.883 -15.318,0 -31.382,4.115 -33.753,21.539 h 24.416 c 0.372,-0.626 0.866,-1.372 1.365,-2.238 1.492,-2.371 4.109,-4.729 7.226,-4.729 7.972,0 9.711,9.458 9.711,14.819 v 5.968 H 9.217 c -3.983,-5.842 -9.837,-8.965 -17.31,-8.965 -19.054,0 -27.646,14.205 -27.646,31.515 0,16.816 9.585,30.883 28.02,30.883 7.346,0 14.073,-2.864 16.936,-9.464 h 0.247 v 7.846 h 24.662 z"
       style="fill:#231f20;fill-opacity:1;fill-rule:nonzero;stroke:none"
       transform="matrix(0.35277776,0,0,-0.35277776,251.74252,119.25095)"
       clip-path="url(#clipPath14)" />
    <path
       id="path15"
       d="m 0,0 c -2.99,-1.498 -6.354,-2.244 -9.717,-3.117 -5.481,-1.365 -8.345,-2.611 -8.345,-6.967 0,-2.99 3.243,-5.987 7.726,-5.987 5.601,0 9.963,3.238 10.336,10.096 z m 23.663,-14.572 c 0,-4.855 0.12,-10.331 2.991,-14.446 H 1.492 c -0.62,1.865 -0.993,4.229 -0.866,6.101 H 0.373 c -5.355,-5.969 -12.827,-7.726 -20.805,-7.726 -12.449,0 -22.785,5.987 -22.785,19.554 0,20.559 24.036,19.554 36.49,22.045 3.364,0.626 6.727,1.625 6.727,5.728 0,4.368 -4.115,5.981 -8.098,5.981 -7.473,0 -9.212,-3.857 -9.212,-6.601 h -22.923 c 0.626,18.309 18.062,21.173 33.26,21.173 30.889,0 30.636,-12.822 30.636,-25.282 z"
       style="fill:#231f20;fill-opacity:1;fill-rule:nonzero;stroke:none"
       transform="matrix(0.35277776,0,0,-0.35277776,282.10954,115.95847)"
       clip-path="url(#clipPath16)" />
    <path
       id="path17"
       d="m 0,0 h 23.79 v -8.219 h 0.246 c 4.609,6.474 11.083,9.843 21.052,9.843 11.576,0 22.165,-7.105 22.165,-21.924 V -64.63 H 42.597 v 33.873 c 0,7.473 -0.872,12.707 -8.098,12.707 -4.356,0 -9.837,-2.124 -9.837,-12.454 V -64.63 H 0 Z"
       style="fill:#231f20;fill-opacity:1;fill-rule:nonzero;stroke:none"
       transform="matrix(0.35277776,0,0,-0.35277776,295.07688,103.39418)"
       clip-path="url(#clipPath18)" />
    <path
       id="path19"
       d="M 0,0 H 13.2 V -15.186 H 0 V -37.73 c 0,-5.981 1.245,-8.598 7.599,-8.598 1.865,0 3.736,0.12 5.601,0.379 V -64.63 c -4.981,0 -10.456,-0.752 -15.817,-0.752 -10.457,0 -22.045,1.618 -22.045,19.307 v 30.889 H -35.618 V 0 h 10.956 V 19.68 H 0 Z"
       style="fill:#231f20;fill-opacity:1;fill-rule:nonzero;stroke:none"
       transform="matrix(0.35277776,0,0,-0.35277776,334.01084,103.39418)"
       clip-path="url(#clipPath20)" />
    <path
       id="path21"
       d="m 0,0 c -9.464,0 -10.583,-9.085 -10.583,-15.944 0,-6.847 1.119,-16.058 10.583,-16.058 9.464,0 10.589,9.211 10.589,16.058 C 10.589,-9.085 9.464,0 0,0 m 0,-49.944 c -24.289,0 -35.245,16.071 -35.245,34 0,17.815 10.956,33.88 35.245,33.88 24.289,0 35.245,-16.065 35.245,-33.88 0,-17.929 -10.956,-34 -35.245,-34"
       style="fill:#231f20;fill-opacity:1;fill-rule:nonzero;stroke:none"
       transform="matrix(0.35277776,0,0,-0.35277776,352.90834,109.14923)"
       clip-path="url(#clipPath22)" />
    <path
       id="path23"
       d="m 2407.975,3746.571 h 24.662 v -88.919 h -24.662 z"
       style="fill:#231f20;fill-opacity:1;fill-rule:nonzero;stroke:none"
       transform="matrix(0.35277776,0,0,-0.35277776,-480.17707,1416.5329)"
       clip-path="url(#clipPath24)" />
    <path
       id="path25"
       d="M 0,0 H -2.864 V 0.963 H 4.007 V 0 H 1.143 V -7.629 H 0 Z"
       style="fill:#231f20;fill-opacity:1;fill-rule:nonzero;stroke:none"
       transform="matrix(0.35277776,0,0,-0.35277776,381.43751,95.275913)"
       clip-path="url(#clipPath26)" />
    <path
       id="path27"
       d="M 0,0 H 1.564 L 4.266,-7.214 6.985,0 H 8.549 V -8.592 H 7.467 v 7.148 H 7.442 L 4.759,-8.592 H 3.79 L 1.107,-1.444 H 1.083 V -8.592 H 0 Z"
       style="fill:#231f20;fill-opacity:1;fill-rule:nonzero;stroke:none"
       transform="matrix(0.35277776,0,0,-0.35277776,383.19736,94.936056)"
       clip-path="url(#clipPath28)" />
    <path
       id="path29"
       d="M 0,0 V -25.258 H 24.215 V -36.033 H 0 v -25.605 h -11.354 v 25.605 h -24.215 v 10.775 h 24.215 V 0 Z"
       style="fill:#231f20;fill-opacity:1;fill-rule:nonzero;stroke:#231f20;stroke-width:10.16;stroke-linecap:butt;stroke-linejoin:miter;stroke-miterlimit:10;stroke-dasharray:none;stroke-opacity:1"
       transform="matrix(0.35277776,0,0,-0.35277776,167.80489,101.94667)"
       clip-path="url(#clipPath30)" />
    <path
       id="path31"
       d="M 0,0 V -25.258 H 24.215 V -36.033 H 0 v -25.605 h -11.354 v 25.605 h -24.215 v 10.775 h 24.215 V 0 Z"
       style="fill:#231f20;fill-opacity:1;fill-rule:nonzero;stroke:#231f20;stroke-width:10.16;stroke-linecap:butt;stroke-linejoin:miter;stroke-miterlimit:10;stroke-dasharray:none;stroke-opacity:1"
       transform="matrix(0.35277776,0,0,-0.35277776,-103.83258,101.94667)"
       clip-path="url(#clipPath32)" />
    <path
       id="path33"
       d="M 0,0 C -0.804,-9.211 -7.48,-21.964 -17.929,-21.964 H -46.15 l 3.788,43.327 h 29.612 c 3.595,0 6.234,-1.043 8.291,-3.295 C -1.112,14.417 0.641,7.324 0,0 m -185.381,-22.029 c -3.206,0 -5.792,1.116 -7.896,3.411 -3.473,3.787 -5.426,10.655 -4.865,17.083 0.687,7.84 5.31,22.669 17.901,22.669 l 53.325,-0.149 -3.64,-43.169 z M 40.104,29.463 C 36.033,38.97 29.56,46.403 20.863,51.549 15.436,54.762 9.169,57.092 2.236,58.471 c -6.658,1.332 -15.23,1.977 -26.21,1.977 h -60.547 l -0.022,-0.249 h -39.067 l -0.001,-0.05 h -41.378 c -10.937,0 -19.574,-0.641 -26.398,-1.959 -7.043,-1.354 -13.564,-3.629 -19.386,-6.755 -8.292,-4.447 -15.156,-10.691 -20.46,-18.553 l 2.731,27.158 -44.922,-0.112 -7.488,-75.023 h -31.114 c 0.007,0.039 0.015,0.077 0.023,0.113 l 7.987,74.925 h -43.837 l -2.151,-21.4 c -5.748,11.325 -17.202,18.764 -33.755,21.514 l -0.645,0.107 h -75.895 l 0.002,0.038 h -119.134 l -4.602,-43.251 h 37.725 l -8.269,-77.857 h 43.683 l 8.272,77.857 h 33.369 l -7.819,-77.577 47.478,0.112 3.223,32.637 h 15.323 l 14.23,-33.029 h 52.247 l -17.085,40.197 c 2.42,2.281 4.561,4.73 6.43,7.322 l -0.536,-5.355 -0.032,-0.39 c -0.711,-14.009 2.385,-24.747 9.199,-31.912 6.22,-6.544 15.22,-9.862 26.747,-9.862 0.403,0 0.806,0.003 1.062,0.008 h 78.12 l 2.853,28.329 c 3.944,-8.492 9.985,-15.217 17.992,-19.941 5.146,-3.066 11.078,-5.279 17.638,-6.574 6.254,-1.227 15.417,-1.822 28.01,-1.822 h 40.353 5.822 32.875 6.516 55.422 c 12.61,0 21.877,0.595 28.331,1.819 6.669,1.271 12.862,3.435 18.373,6.414 8.996,4.81 16.25,11.716 21.576,20.52 5.209,8.621 8.355,18.733 9.344,30.054 1.032,11.798 -0.423,22.415 -4.335,31.562 M -389.445,17.451 c -0.144,-0.933 -0.38,-1.363 -0.437,-1.432 -0.108,-0.081 -0.704,-0.321 -1.826,-0.341 l -29.798,0.057 0.224,2.288 h 30.977 c 0.39,-0.077 0.682,-0.159 0.903,-0.231 -0.01,-0.097 -0.021,-0.214 -0.043,-0.341"
       style="fill:#ffffff;fill-opacity:1;fill-rule:nonzero;stroke:none"
       transform="matrix(0.35277776,0,0,-0.35277776,-164.38282,118.30035)"
       clip-path="url(#clipPath34)" />
    <path
       id="path35"
       d="m 0,0 h -26.332 l -14.23,33.026 H -74.57 l -3.223,-32.66 -23.442,-0.054 9.755,96.87 h 68.71 C -2.919,93.798 5.874,83.797 4.884,65.596 4.608,52.03 -0.606,41.604 -11.055,33.726 l -2.486,-1.875 z m 12.842,65.298 c 1.202,22.075 -10.77,35.829 -34.627,39.795 l -76.891,0.052 -11.364,-112.814 39.464,0.094 3.22,32.639 h 21.552 L -31.569,-7.963 H 12.035 L -3.812,29.324 c 10.753,9.119 16.356,21.243 16.654,35.974"
       style="fill:#f5f015;fill-opacity:1;fill-rule:nonzero;stroke:none"
       transform="matrix(0.35277776,0,0,-0.35277776,-292.30876,135.57362)"
       clip-path="url(#clipPath36)" />
    <path
       id="path37"
       d="m 0,0 c -0.477,-3.027 -1.724,-5.058 -6.205,-5.135 l -34.183,0.071 1.013,10.239 H -4.432 C -2.422,4.837 -1.034,4.215 -0.415,3.37 0.099,2.668 0.244,1.532 0,0 m -3.519,13.091 -43.073,0.046 -2.58,-26.147 43.024,-0.083 c 7.856,0.128 12.835,4.341 14.015,11.859 0.581,3.701 -0.046,6.832 -1.861,9.309 -1.95,2.667 -5.158,4.357 -9.525,5.016"
       style="fill:#f5f015;fill-opacity:1;fill-rule:nonzero;stroke:none"
       transform="matrix(0.35277776,0,0,-0.35277776,-300.38307,112.36318)"
       clip-path="url(#clipPath38)" />
    <path
       id="path39"
       d="m 0,0 h -21.24 l 8.196,97.215 H 8.199 Z M -20.356,105.178 -29.901,-7.963 H 7.322 l 9.539,113.141 z"
       style="fill:#f5f015;fill-opacity:1;fill-rule:nonzero;stroke:none"
       transform="matrix(0.35277776,0,0,-0.35277776,-199.51551,135.57362)"
       clip-path="url(#clipPath40)" />
    <path
       id="path41"
       d="m 0,0 h -67.399 c -8.606,-0.171 -15.043,1.895 -19.076,6.14 -4.453,4.684 -6.452,12.413 -5.932,22.979 l 6.824,67.834 h 19.756 l -6.488,-60.977 c -0.811,-4.598 -0.172,-8.192 1.904,-10.686 2.095,-2.512 5.266,-3.658 9.668,-3.372 h 42.114 l 7.483,75.045 20.903,0.053 z M -18.354,104.907 -25.839,29.88 H -60.88 l -0.284,-0.012 c -1.539,-0.104 -2.778,0.095 -3.128,0.518 -0.359,0.43 -0.619,1.817 -0.162,4.304 l 7.478,70.226 h -35.812 l -7.547,-75.102 -0.016,-0.195 c -0.653,-12.879 2.073,-22.625 8.105,-28.965 5.442,-5.723 13.47,-8.627 23.865,-8.627 0.374,0 0.756,0.007 1.06,0.012 H 7.202 L 18.56,105.001 Z"
       style="fill:#f5f015;fill-opacity:1;fill-rule:nonzero;stroke:none"
       transform="matrix(0.35277776,0,0,-0.35277776,-253.09462,135.57021)"
       clip-path="url(#clipPath42)" />
    <path
       id="path43"
       d="m 0,0 h -37.724 l -8.274,-77.858 H -65.662 L -57.389,0 h -37.724 l 2.057,19.359 H 2.061 Z m 10.915,27.324 h -111.129 l -3.755,-35.287 h 37.727 l -8.272,-77.856 h 35.678 l 8.272,77.856 H 7.16 Z"
       style="fill:#f5f015;fill-opacity:1;fill-rule:nonzero;stroke:none"
       transform="matrix(0.35277776,0,0,-0.35277776,-332.17748,108.10733)"
       clip-path="url(#clipPath44)" />
    <path
       id="path45"
       d="m 0,0 c -0.831,-9.492 -3.404,-17.873 -7.667,-24.916 -4.201,-6.947 -9.911,-12.386 -16.998,-16.178 -4.465,-2.413 -9.503,-4.161 -14.962,-5.203 -5.625,-1.067 -14.409,-1.611 -26.098,-1.611 h -48.911 l 8.518,97.47 h 49.604 c 10.046,0 18.078,-0.586 23.868,-1.743 5.613,-1.122 10.617,-2.967 14.88,-5.491 C -11.203,38.445 -6.509,33.049 -3.42,25.822 -0.294,18.503 0.854,9.819 0,0 m 3.902,28.95 c -3.728,8.717 -9.652,15.524 -17.608,20.229 -5.038,2.982 -10.888,5.155 -17.381,6.447 -6.3,1.262 -14.859,1.895 -25.427,1.895 h -56.901 l -9.903,-113.39 h 57.593 c 12.361,0 21.38,0.572 27.586,1.748 6.266,1.192 12.073,3.219 17.241,6.014 8.352,4.466 15.096,10.882 20.048,19.074 4.892,8.091 7.843,17.626 8.78,28.337 C 8.908,10.445 7.553,20.418 3.902,28.95"
       style="fill:#f5f015;fill-opacity:1;fill-rule:nonzero;stroke:none"
       transform="matrix(0.35277776,0,0,-0.35277776,-152.90323,118.6731)"
       clip-path="url(#clipPath46)" />
    <path
       id="path47"
       d="m 0,0 c -0.902,-10.321 -8.483,-25.596 -21.895,-25.596 h -32.567 l 4.484,51.293 h 33.261 c 4.665,0 8.435,-1.546 11.228,-4.592 C -0.555,15.72 0.584,6.673 0,0 m -16.717,33.659 h -40.559 l -5.874,-67.215 h 41.255 c 18.588,0 28.633,19.214 29.828,32.864 0.945,10.827 -1.877,20.991 -7.553,27.18 -4.301,4.689 -10.213,7.171 -17.097,7.171"
       style="fill:#f5f015;fill-opacity:1;fill-rule:nonzero;stroke:none"
       transform="matrix(0.35277776,0,0,-0.35277776,-162.98322,118.42333)"
       clip-path="url(#clipPath48)" />
    <path
       id="path49"
       d="m 0,0 h -35.208 c -11.648,0 -20.298,0.54 -25.705,1.6 -5.207,1.026 -9.855,2.744 -13.834,5.118 -6.32,3.73 -10.821,8.866 -13.758,15.715 -2.977,6.93 -4.076,15.217 -3.255,24.632 0.862,9.842 3.551,18.573 7.993,25.945 4.381,7.276 10.303,12.952 17.607,16.868 4.76,2.555 10.142,4.421 15.999,5.546 5.988,1.159 14.11,1.748 24.135,1.748 H 8.488 l -1.36,-15.267 -48.382,0.134 c -18.477,0 -28.408,-17.403 -29.822,-33.573 -0.67,-7.725 1.063,-18.664 7.962,-26.188 4.367,-4.767 10.142,-7.289 16.688,-7.289 L 1.269,14.858 Z m -46.417,22.952 c -4.326,0 -7.968,1.586 -10.825,4.705 -4.247,4.634 -6.565,12.527 -5.901,20.118 0.798,9.097 6.393,26.304 21.878,26.304 l 55.672,-0.152 2.783,31.204 h -43.216 c -10.53,0 -19.161,-0.633 -25.641,-1.886 -6.647,-1.28 -12.79,-3.417 -18.258,-6.353 -8.58,-4.602 -15.531,-11.251 -20.664,-19.774 -5.072,-8.418 -8.137,-18.299 -9.1,-29.356 -0.935,-10.744 0.361,-20.325 3.865,-28.475 3.583,-8.337 9.316,-14.872 17.015,-19.416 4.748,-2.835 10.25,-4.882 16.357,-6.084 5.999,-1.176 14.909,-1.75 27.244,-1.75 H 7.309 l 2.627,30.761 z"
       style="fill:#f5f015;fill-opacity:1;fill-rule:nonzero;stroke:none"
       transform="matrix(0.35277776,0,0,-0.35277776,-213.40648,135.57362)"
       clip-path="url(#clipPath50)" />
    <path
       id="path51"
       d="m 0,0 c -0.873,-5.568 -4.258,-8.4 -10.147,-8.5 l -38.565,0.075 1.794,18.196 H -8.051 C -1.81,8.822 0.873,5.568 0,0 m -3.482,35.988 h -72.64 l -10.563,-104.846 31.453,0.077 3.221,32.647 h 27.783 L -10,-69.157 h 34.971 l -14.677,34.524 c 11.387,8.581 17.226,20.242 17.518,34.969 1.106,20.12 -9.329,32 -31.294,35.652"
       style="fill:#ec1e27;fill-opacity:1;fill-rule:nonzero;stroke:none"
       transform="matrix(0.35277776,0,0,-0.35277776,-298.99496,112.58027)"
       clip-path="url(#clipPath52)" />
    <path
       id="path53"
       d="m 0,0 h 29.232 l 8.865,105.178 H 8.866 Z"
       style="fill:#ec1e27;fill-opacity:1;fill-rule:nonzero;stroke:none"
       transform="matrix(0.35277776,0,0,-0.35277776,-208.53585,136.9775)"
       clip-path="url(#clipPath54)" />
    <path
       id="path55"
       d="m 0,0 h -38.642 c -6.244,-0.447 -8.737,2.719 -7.49,9.511 l 6.966,65.527 h -27.78 l -7.19,-71.519 c -1.149,-22.661 8.529,-33.797 29.051,-33.397 H 25.836 L 36.397,75.111 7.488,75.038 Z"
       style="fill:#ec1e27;fill-opacity:1;fill-rule:nonzero;stroke:none"
       transform="matrix(0.35277776,0,0,-0.35277776,-260.93958,126.4342)"
       clip-path="url(#clipPath56)" />
    <path
       id="path57"
       d="M 0,0 H 37.729 L 29.451,-77.856 H 57.127 L 65.396,0 h 37.728 l 2.904,27.324 H 2.907 Z"
       style="fill:#ec1e27;fill-opacity:1;fill-rule:nonzero;stroke:none"
       transform="matrix(0.35277776,0,0,-0.35277776,-367.2934,109.51174)"
       clip-path="url(#clipPath58)" />
    <path
       id="path59"
       d="m 0,0 c -1.096,-12.614 -10.234,-29.234 -25.857,-29.234 h -36.906 l 5.175,59.257 h 36.911 C -3.775,30.023 1.157,13.253 0,0 m 24.854,27.025 c -3.4,7.952 -8.731,14.079 -15.974,18.367 -4.669,2.765 -10.049,4.757 -16.134,5.968 -6.091,1.219 -14.31,1.821 -24.648,1.821 H -85.15 l -9.215,-105.429 h 53.251 c 12.014,0 20.954,0.564 26.842,1.676 5.889,1.125 11.258,2.99 16.108,5.613 7.756,4.144 13.926,10.018 18.517,17.62 4.593,7.598 7.341,16.474 8.224,26.631 0.921,10.526 -0.318,19.768 -3.723,27.733"
       style="fill:#ec1e27;fill-opacity:1;fill-rule:nonzero;stroke:none"
       transform="matrix(0.35277776,0,0,-0.35277776,-161.58596,118.54546)"
       clip-path="url(#clipPath60)" />
    <path
       id="path61"
       d="m 0,0 c -6.287,-1.209 -11.997,-3.198 -17.127,-5.953 -7.976,-4.276 -14.357,-10.384 -19.135,-18.317 -4.784,-7.938 -7.634,-17.155 -8.548,-27.654 -0.883,-10.125 0.304,-18.98 3.56,-26.551 3.257,-7.582 8.392,-13.437 15.393,-17.572 4.384,-2.614 9.413,-4.478 15.086,-5.597 5.677,-1.111 14.503,-1.673 26.478,-1.673 h 38.859 l 1.952,22.811 -52.021,0.143 c -15.577,0 -21.789,16.569 -20.69,29.147 1.152,13.22 8.998,29.936 25.852,29.936 l 52.02,-0.14 2.074,23.234 H 24.89 C 14.578,1.814 6.28,1.211 0,0"
       style="fill:#ec1e27;fill-opacity:1;fill-rule:nonzero;stroke:none"
       transform="matrix(0.35277776,0,0,-0.35277776,-231.36781,100.52996)"
       clip-path="url(#clipPath62)" />
    <path
       id="path63"
       d="m 0,0 v 16.048 h -5.778 v 3.267 H 9.696 V 16.048 H 3.932 V 0 Z"
       style="fill:#050606;fill-opacity:1;fill-rule:nonzero;stroke:none"
       transform="matrix(0.35277776,0,0,-0.35277776,-149.1562,104.20227)"
       clip-path="url(#clipPath64)" />
    <path
       id="path65"
       d="M 0,0 V 19.315 H 5.884 L 9.417,6.14 12.91,19.315 h 5.898 V 0 H 15.155 V 15.205 L 11.29,0 H 7.504 L 3.653,15.205 V 0 Z"
       style="fill:#050606;fill-opacity:1;fill-rule:nonzero;stroke:none"
       transform="matrix(0.35277776,0,0,-0.35277776,-144.85937,104.20227)"
       clip-path="url(#clipPath66)" />
    <path
       id="path67"
       d="M 0,0 -568.14,-133.499 -612.639,117.329 0,255.955 Z"
       style="fill:#e0241d;fill-opacity:1;fill-rule:nonzero;stroke:none"
       transform="matrix(0.35277776,0,0,-0.35277776,137.98621,127.07243)"
       clip-path="url(#clipPath68)" />
    <path
       id="path69"
       d="M 0,0 2.655,7.116 H 7.004 V -4.598 H 3.988 V 3.391 H 3.933 L 1.14,-4.598 H -1.167 L -3.96,3.391 H -4.016 V -4.598 H -7.032 V 7.116 h 4.363 z m -9.255,4.698 h -3.266 v -9.296 h -3.182 v 9.296 h -3.252 v 2.418 h 9.7 z m -42.962,23.364 c 0.285,-0.144 0.748,-0.266 1.388,-0.373 0.641,-0.107 1.457,-0.161 2.454,-0.161 1.067,0 2.117,0.125 3.15,0.373 1.031,0.248 1.956,0.641 2.775,1.174 0.816,0.534 1.494,1.175 2.027,1.923 0.534,0.748 0.802,1.617 0.802,2.614 0,2.56 -1.389,3.842 -4.164,3.842 -2.349,0 -4.198,-0.853 -5.55,-2.561 -1.352,-1.707 -2.312,-3.986 -2.882,-6.831 m -2.987,-12.379 c -0.144,-0.573 -0.232,-1.194 -0.268,-1.869 -0.037,-0.677 -0.054,-1.157 -0.054,-1.44 0,-2.707 0.57,-4.519 1.708,-5.445 1.138,-0.924 3.131,-1.387 5.976,-1.387 2.349,0 4.927,0.498 7.738,1.494 2.812,0.996 5.392,2.312 7.738,3.949 l 3.63,-11.633 c -4.412,-2.49 -8.576,-4.252 -12.488,-5.282 -3.913,-1.031 -7.292,-1.547 -10.138,-1.547 -7.969,0 -13.787,1.615 -17.452,4.855 -3.664,3.236 -5.496,8.379 -5.496,15.423 0,5.05 0.728,9.852 2.188,14.408 1.459,4.551 3.576,8.554 6.351,12.006 2.775,3.45 6.155,6.191 10.14,8.218 3.984,2.027 8.537,3.043 13.661,3.043 2.846,0 5.55,-0.285 8.111,-0.855 2.56,-0.57 4.765,-1.476 6.617,-2.721 1.849,-1.245 3.325,-2.866 4.429,-4.856 1.104,-1.993 1.654,-4.412 1.654,-7.258 0,-2.56 -0.587,-5.016 -1.761,-7.365 -1.174,-2.346 -2.919,-4.429 -5.229,-6.242 -2.314,-1.815 -5.194,-3.255 -8.646,-4.325 -3.45,-1.067 -7.416,-1.6 -11.899,-1.6 -1.567,0 -2.936,0.037 -4.11,0.107 -1.172,0.071 -1.974,0.178 -2.4,0.322 m -51.017,-23.16 c -3.986,0 -7.953,0.604 -11.902,1.812 -3.947,1.209 -7.631,2.883 -11.047,5.017 l 8.54,12.274 c 0.853,-0.641 1.903,-1.318 3.148,-2.027 1.245,-0.714 2.616,-1.335 4.11,-1.869 1.493,-0.533 3.057,-0.979 4.695,-1.335 1.637,-0.355 3.272,-0.533 4.909,-0.533 1.566,0 3.077,0.375 4.536,1.12 1.457,0.748 2.188,1.94 2.188,3.577 0,1.35 -0.533,2.312 -1.6,2.882 -1.068,0.568 -3.024,1.174 -5.87,1.813 l -4.59,1.067 c -3.701,0.855 -6.475,2.419 -8.325,4.697 -1.851,2.276 -2.775,5.192 -2.775,8.752 0,2.56 0.57,5.087 1.708,7.577 1.138,2.49 2.829,4.697 5.07,6.617 2.242,1.922 5.034,3.469 8.379,4.644 3.343,1.174 7.258,1.761 11.741,1.761 3.91,0 7.469,-0.412 10.671,-1.228 3.201,-0.818 6.58,-2.08 10.14,-3.788 l -8.218,-11.527 c -2.207,1.209 -4.449,2.134 -6.724,2.775 -2.278,0.641 -4.342,0.96 -6.191,0.96 -0.285,0 -0.731,-0.036 -1.333,-0.107 -0.606,-0.071 -1.228,-0.249 -1.868,-0.534 -0.641,-0.285 -1.192,-0.711 -1.655,-1.281 -0.463,-0.57 -0.694,-1.352 -0.694,-2.346 0.071,-0.785 0.497,-1.479 1.282,-2.084 0.782,-0.604 2.312,-1.191 4.59,-1.759 l 4.909,-1.281 c 3.557,-0.926 6.349,-2.366 8.376,-4.322 2.03,-1.959 3.043,-4.929 3.043,-8.912 0,-2.278 -0.604,-4.715 -1.815,-7.312 -1.211,-2.597 -3.024,-5.016 -5.443,-7.258 -2.419,-2.241 -5.462,-4.107 -9.124,-5.603 -3.667,-1.494 -7.952,-2.239 -12.861,-2.239 m -40.909,44.824 c -1.289,0 -2.454,-0.568 -3.494,-1.701 -1.038,-1.135 -1.969,-2.59 -2.792,-4.361 -0.824,-1.774 -1.523,-3.742 -2.098,-5.903 -0.572,-2.164 -1.057,-4.239 -1.452,-6.223 -0.392,-1.985 -0.68,-3.759 -0.857,-5.321 -0.181,-1.559 -0.268,-2.66 -0.268,-3.296 0,-1.703 0.321,-2.963 0.967,-3.776 0.643,-0.817 1.717,-1.224 3.223,-1.224 1.289,0 2.453,0.568 3.494,1.701 1.038,1.135 1.971,2.607 2.794,4.415 0.824,1.808 1.523,3.776 2.096,5.903 0.574,2.127 1.057,4.183 1.452,6.171 0.392,1.984 0.679,3.757 0.86,5.317 0.178,1.561 0.268,2.66 0.268,3.298 0,1.845 -0.341,3.138 -1.021,3.884 -0.682,0.743 -1.74,1.116 -3.172,1.116 m 3.445,13.022 c 2.845,0 5.513,-0.375 8.006,-1.121 2.49,-0.748 4.658,-1.905 6.509,-3.469 1.85,-1.567 3.292,-3.574 4.323,-6.03 1.03,-2.456 1.549,-5.426 1.549,-8.912 0,-3.628 -0.553,-7.65 -1.654,-12.06 -1.106,-4.412 -2.955,-8.576 -5.55,-12.486 -2.6,-3.916 -6.069,-7.19 -10.408,-9.822 -4.339,-2.631 -9.712,-3.946 -16.114,-3.946 -6.549,0 -11.58,1.705 -15.103,5.121 -3.523,3.416 -5.282,8.325 -5.282,14.73 0,2.346 0.229,4.926 0.692,7.738 0.463,2.809 1.211,5.618 2.241,8.43 1.031,2.811 2.419,5.533 4.164,8.166 1.742,2.632 3.859,4.963 6.349,6.99 2.49,2.027 5.406,3.645 8.751,4.856 3.345,1.208 7.188,1.815 11.527,1.815 m -54.109,-16.436 c -0.144,0.568 -0.553,1.067 -1.228,1.494 -0.677,0.426 -1.44,0.641 -2.295,0.641 -1.423,0 -2.685,-0.517 -3.789,-1.55 -1.103,-1.03 -2.046,-2.346 -2.828,-3.947 -0.782,-1.601 -1.46,-3.362 -2.027,-5.284 -0.57,-1.92 -1.014,-3.789 -1.336,-5.604 -0.319,-1.812 -0.55,-3.433 -0.691,-4.856 -0.144,-1.422 -0.215,-2.419 -0.215,-2.986 0,-1.64 0.266,-2.936 0.799,-3.896 0.536,-0.963 1.513,-1.443 2.936,-1.443 1.208,0 2.329,0.41 3.362,1.228 1.031,0.817 1.762,1.618 2.188,2.403 z m -3.842,-40.024 c -0.215,0.568 -0.359,1.228 -0.427,1.973 -0.073,0.748 -0.107,1.406 -0.107,1.976 -1.14,-1.566 -2.811,-2.848 -5.016,-3.842 -2.208,-0.996 -4.841,-1.493 -7.899,-1.493 -5.265,0 -9.285,1.547 -12.06,4.641 -2.775,3.096 -4.2,7.523 -4.268,13.288 -0.074,2.275 0.087,4.839 0.48,7.684 0.389,2.846 1.047,5.745 1.973,8.698 0.923,2.953 2.188,5.852 3.788,8.7 1.604,2.843 3.557,5.353 5.872,7.524 2.31,2.17 5.051,3.929 8.218,5.282 3.165,1.352 6.778,2.029 10.832,2.029 1.281,0 2.402,-0.178 3.362,-0.534 0.96,-0.358 1.832,-0.713 2.614,-1.067 0.071,0.782 0.249,2.027 0.536,3.735 0.283,1.708 0.568,3.272 0.853,4.695 l 3.094,14.837 18.146,-2.029 -11.422,-54.219 c -0.784,-3.486 -1.369,-6.385 -1.761,-8.697 -0.39,-2.312 -0.658,-4.269 -0.799,-5.87 -0.144,-1.6 -0.197,-2.952 -0.161,-4.056 0.034,-1.104 0.161,-2.188 0.373,-3.255 z m -27.429,56.246 -7.684,-36.075 c -0.57,-2.846 -0.892,-5.587 -0.96,-8.218 -0.073,-2.632 0.248,-5.372 0.96,-8.218 l -17.398,-6.191 c -0.212,0.429 -0.426,0.963 -0.641,1.603 -0.212,0.639 -0.39,1.296 -0.533,1.974 -0.142,0.675 -0.266,1.315 -0.373,1.919 -0.107,0.605 -0.197,1.051 -0.266,1.336 -2.207,-1.852 -4.714,-3.275 -7.526,-4.269 -2.811,-0.996 -5.781,-1.493 -8.912,-1.493 -1.708,0 -3.379,0.158 -5.016,0.48 -1.638,0.319 -3.094,0.889 -4.376,1.707 -1.279,0.817 -2.295,1.92 -3.041,3.309 -0.747,1.387 -1.12,3.148 -1.12,5.282 0,1.282 0.124,2.846 0.373,4.695 0.248,1.852 0.694,4.342 1.335,7.472 l 6.829,32.233 19.106,2.454 -7.792,-36.609 c -0.499,-2.205 -0.57,-3.788 -0.214,-4.748 0.356,-0.96 1.315,-1.44 2.882,-1.44 1.493,0 2.846,0.39 4.057,1.174 1.208,0.782 2.416,2.098 3.627,3.947 l 7.577,35.222 z m -80.37,-14.621 c -1.638,0 -3.007,-0.429 -4.108,-1.282 -1.104,-0.852 -2.261,-2.207 -3.469,-4.056 l -4.695,-21.559 c 0.141,-0.997 1.208,-1.494 3.201,-1.494 1.067,0 2.115,0.125 3.148,0.373 1.031,0.248 1.99,0.889 2.882,1.922 0.889,1.031 1.762,2.578 2.614,4.642 0.856,2.063 1.672,4.911 2.456,8.539 0.427,1.778 0.782,3.469 1.067,5.07 0.283,1.601 0.39,2.97 0.319,4.108 -0.07,1.138 -0.355,2.046 -0.852,2.721 -0.5,0.677 -1.352,1.016 -2.563,1.016 m 22.2,-11.314 c -2.278,-10.815 -5.994,-18.802 -11.154,-23.96 -5.158,-5.16 -11.473,-7.737 -18.942,-7.737 -1.638,0 -3.114,0.158 -4.43,0.48 -1.318,0.319 -2.58,0.765 -3.788,1.332 0.141,-0.782 0.141,-1.812 0,-3.094 -0.144,-1.281 -0.466,-3.06 -0.963,-5.338 l -2.346,-11.312 -19.639,-5.016 12.488,59.02 c 0.853,4.127 1.421,7.594 1.706,10.406 0.285,2.812 0.214,5.567 -0.212,8.271 l 16.436,3.097 c 0.214,-0.711 0.389,-1.601 0.533,-2.668 0.141,-1.067 0.249,-2.173 0.322,-3.308 1.564,1.279 3.681,2.594 6.349,3.947 2.668,1.352 5.852,2.029 9.553,2.029 2.987,0 5.46,-0.463 7.416,-1.389 1.956,-0.926 3.523,-2.188 4.697,-3.788 1.175,-1.601 1.991,-3.452 2.454,-5.55 0.463,-2.1 0.658,-4.322 0.587,-6.671 0,-1.423 -0.09,-2.88 -0.266,-4.376 -0.177,-1.493 -0.446,-2.952 -0.801,-4.375 m -84.849,20.065 c 2.135,1.92 4.605,3.416 7.417,4.483 2.811,1.067 5.745,1.601 8.805,1.601 3.415,0 6.066,-0.446 7.952,-1.335 1.886,-0.889 3.218,-2.081 4.003,-3.574 0.782,-1.496 1.138,-3.187 1.067,-5.07 -0.073,-1.886 -0.319,-3.825 -0.748,-5.818 l -8.644,-40.663 h -17.825 l 7.473,35.22 c 0.497,2.134 0.601,3.698 0.319,4.697 -0.285,0.994 -1.211,1.494 -2.775,1.494 -1.494,0 -2.775,-0.41 -3.842,-1.228 -1.067,-0.819 -2.208,-2.117 -3.416,-3.896 l -7.684,-36.287 h -17.396 l 7.47,35.22 c 0.497,2.134 0.658,3.698 0.48,4.697 -0.178,0.994 -1.05,1.494 -2.614,1.494 -1.494,0 -2.775,-0.393 -3.842,-1.175 -1.068,-0.784 -2.208,-2.1 -3.416,-3.949 l -7.792,-36.287 h -18.036 l 7.365,34.686 c 0.853,4.127 1.421,7.594 1.706,10.406 0.285,2.812 0.214,5.567 -0.212,8.271 l 16.435,3.097 c 0.142,-0.711 0.283,-1.62 0.427,-2.721 0.141,-1.104 0.248,-2.154 0.321,-3.151 1.849,1.638 4.125,3.024 6.829,4.164 2.705,1.138 5.765,1.708 9.181,1.708 3.13,0 5.55,-0.587 7.257,-1.761 1.708,-1.175 2.951,-2.615 3.735,-4.323 m -74.632,-6.938 c -1.289,0 -2.454,-0.568 -3.494,-1.701 -1.038,-1.135 -1.969,-2.59 -2.792,-4.361 -0.824,-1.774 -1.523,-3.742 -2.098,-5.903 -0.572,-2.164 -1.057,-4.239 -1.452,-6.223 -0.392,-1.985 -0.68,-3.759 -0.858,-5.321 -0.18,-1.559 -0.268,-2.66 -0.268,-3.296 0,-1.703 0.322,-2.963 0.968,-3.776 0.643,-0.817 1.717,-1.224 3.223,-1.224 1.289,0 2.453,0.568 3.494,1.701 1.038,1.135 1.971,2.607 2.794,4.415 0.824,1.808 1.523,3.776 2.095,5.903 0.575,2.127 1.058,4.183 1.453,6.171 0.392,1.984 0.679,3.757 0.859,5.317 0.178,1.561 0.269,2.66 0.269,3.298 0,1.845 -0.342,3.138 -1.021,3.884 -0.682,0.743 -1.74,1.116 -3.172,1.116 m 3.445,13.022 c 2.845,0 5.513,-0.375 8.005,-1.121 2.49,-0.748 4.659,-1.905 6.51,-3.469 1.85,-1.567 3.292,-3.574 4.322,-6.03 1.031,-2.456 1.55,-5.426 1.55,-8.912 0,-3.628 -0.553,-7.65 -1.654,-12.06 -1.106,-4.412 -2.956,-8.576 -5.55,-12.486 -2.6,-3.916 -6.069,-7.19 -10.408,-9.822 -4.34,-2.631 -9.712,-3.946 -16.114,-3.946 -6.549,0 -11.58,1.705 -15.103,5.121 -3.523,3.416 -5.282,8.325 -5.282,14.73 0,2.346 0.229,4.926 0.692,7.738 0.462,2.809 1.21,5.618 2.241,8.43 1.031,2.811 2.419,5.533 4.164,8.166 1.742,2.632 3.859,4.963 6.349,6.99 2.49,2.027 5.406,3.645 8.751,4.856 3.345,1.208 7.187,1.815 11.527,1.815 M -478.172,0.207 c -2.846,-2.207 -6.332,-4.022 -10.459,-5.445 -4.128,-1.421 -8.93,-2.135 -14.409,-2.135 -4.127,0 -7.828,0.588 -11.1,1.762 -3.272,1.174 -6.03,2.863 -8.271,5.07 -2.242,2.205 -3.947,4.819 -5.122,7.845 -1.174,3.024 -1.761,6.42 -1.761,10.191 0,3.699 0.336,7.49 1.013,11.368 0.675,3.877 1.708,7.665 3.094,11.366 1.389,3.698 3.151,7.221 5.285,10.566 2.134,3.343 4.658,6.332 7.577,8.966 3.416,2.987 7.258,5.372 11.526,7.151 4.271,1.778 9.356,2.668 15.264,2.668 4.483,0 8.325,-0.517 11.527,-1.548 3.201,-1.032 5.725,-2.331 7.577,-3.895 l -10.46,-12.915 c -1.425,1.211 -3.026,2.097 -4.802,2.668 -1.781,0.57 -3.701,0.855 -5.764,0.855 -2.064,0 -3.932,-0.359 -5.604,-1.068 -1.671,-0.711 -3.398,-1.992 -5.175,-3.842 -1.21,-1.281 -2.368,-3.06 -3.469,-5.338 -1.104,-2.278 -2.081,-4.838 -2.936,-7.684 -0.852,-2.845 -1.53,-5.781 -2.027,-8.805 -0.499,-3.023 -0.748,-5.923 -0.748,-8.698 0,-3.771 0.963,-6.546 2.882,-8.325 1.923,-1.778 4.269,-2.667 7.044,-2.667 2.419,0 4.678,0.389 6.778,1.174 2.098,0.782 4.393,2.098 6.885,3.949 z"
       style="fill:#ffffff;fill-opacity:1;fill-rule:nonzero;stroke:none"
       transform="matrix(0.35277776,0,0,-0.35277776,123.85204,121.899)"
       clip-path="url(#clipPath70)" />
    <path
       id="path71"
       d="M 0,0 12.676,59.702 H 47.37 L 43.598,47.112 H 25.353 L 23.212,37.089 H 38.118 L 35.547,24.926 H 20.644 L 18.073,12.762 H 38.545 L 35.805,0 Z"
       style="fill:#050606;fill-opacity:1;fill-rule:nonzero;stroke:none"
       transform="matrix(0.35277776,0,0,-0.35277776,-79.296574,58.987516)"
       clip-path="url(#clipPath72)" />
    <path
       id="path73"
       d="M 0,0 15.505,2.571 C 15.674,0.427 15.161,-4.113 14.218,-8.481 L 7.193,-41.285 c -1.624,-7.796 -1.796,-9.85 1.542,-9.85 0.516,0 1.029,0.085 1.628,0.255 l 0.43,-9.249 c -2.141,-0.771 -5.826,-1.373 -9.936,-1.373 -12.59,0 -11.479,6.509 -9.593,15.333 l 6.423,30.151 C -0.086,-5.738 0.086,-2.485 0,0"
       style="fill:#050606;fill-opacity:1;fill-rule:nonzero;stroke:none"
       transform="matrix(0.35277776,0,0,-0.35277776,-61.378039,37.68406)"
       clip-path="url(#clipPath74)" />
    <path
       id="path75"
       d="m 0,0 c -1.115,0 -3.256,0.086 -5.397,-2.399 -3.17,-3.683 -5.052,-12.335 -5.052,-17.815 0,-2.998 0.856,-4.285 2.911,-4.285 1.8,0 4.881,3.084 5.225,4.54 L 1.8,-0.599 C 1.284,-0.172 0.513,0 0,0 m 15.846,-3.683 -3.342,-15.932 c -0.341,-1.456 -0.255,-4.54 1.714,-6.681 L 2.141,-35.974 c -1.797,0.94 -3.084,3.597 -3.339,5.224 -1.972,-2.057 -6.34,-4.883 -11.478,-4.883 -8.994,0 -12.763,5.654 -12.763,15.075 0,9.424 3.769,19.188 9.507,24.926 5.052,5.056 10.449,6.68 18.245,6.68 6.082,0 13.619,-1.026 16.875,-2.653 C 17.901,5.311 16.617,0 15.846,-3.683"
       style="fill:#050606;fill-opacity:1;fill-rule:nonzero;stroke:none"
       transform="matrix(0.35277776,0,0,-0.35277776,-48.286138,46.900502)"
       clip-path="url(#clipPath76)" />
    <path
       id="path77"
       d="M 0,0 C 11.048,0 12.163,-6.254 10.793,-12.677 L 3.855,-45.312 h -14.903 l 5.995,28.265 c 0.771,3.428 0.341,4.97 -2.141,4.97 -2.399,0 -4.285,-1.198 -6.167,-4.113 l -6.254,-29.122 h -14.903 l 5.909,27.838 c 1.37,6.68 1.883,10.621 1.198,14.989 L -14.218,0 c 0.341,-1.456 0.685,-2.998 0.771,-4.798 C -10.022,-1.8 -4.884,0 0,0"
       style="fill:#050606;fill-opacity:1;fill-rule:nonzero;stroke:none"
       transform="matrix(0.35277776,0,0,-0.35277776,-30.850785,43.002264)"
       clip-path="url(#clipPath78)" />
    <path
       id="path79"
       d="m 0,0 c -12.335,0 -18.334,7.882 -15.164,22.785 3.173,14.989 12.252,23.642 25.269,23.642 6.34,0 9.768,-1.628 13.365,-5.225 l -8.736,-8.997 c -1.287,1.8 -3.514,3.256 -5.568,3.256 -3.428,0 -5.996,-2.74 -7.882,-11.733 -1.883,-8.994 -1.714,-12.68 2.571,-12.68 3.339,0 6.422,1.628 8.907,3.941 L 17.216,6.251 C 11.479,1.542 5.397,0 0,0"
       style="fill:#050606;fill-opacity:1;fill-rule:nonzero;stroke:none"
       transform="matrix(0.35277776,0,0,-0.35277776,-21.815476,59.380184)"
       clip-path="url(#clipPath80)" />
    <path
       id="path81"
       d="m 0,0 c 0,-2.743 0.943,-4.027 3.342,-4.027 6.164,0 8.735,18.589 8.735,21.587 0,2.998 -1.115,4.024 -3.342,4.024 C 2.571,21.584 0,3.084 0,0 m 27.838,16.276 c 0,-11.564 -6.423,-30.753 -27.067,-30.753 -10.449,0 -16.359,5.741 -16.359,15.933 0,11.392 6.164,30.494 27.066,30.494 9.252,0 16.36,-4.54 16.36,-15.674"
       style="fill:#050606;fill-opacity:1;fill-rule:nonzero;stroke:none"
       transform="matrix(0.35277776,0,0,-0.35277776,-10.197622,54.273514)"
       clip-path="url(#clipPath82)" />
  </g>
</svg>
