<svg
   viewBox="0 0 239.28235 115.6088"
   version="1.1"
   id="svg1"
   xmlns="http://www.w3.org/2000/svg"
   xmlns:svg="http://www.w3.org/2000/svg">
  <defs
     id="defs1">
    <clipPath
       clipPathUnits="userSpaceOnUse"
       id="clipPath322">
      <path
         d="M 0,6179.527 H 3061.417 V 0 H 0 Z"
         transform="translate(-3117.7123,-5990.1329)"
         id="path322" />
    </clipPath>
    <clipPath
       clipPathUnits="userSpaceOnUse"
       id="clipPath324">
      <path
         d="M 0,6179.527 H 3061.417 V 0 H 0 Z"
         transform="translate(-3006.3741,-5751.8243)"
         id="path324" />
    </clipPath>
    <clipPath
       clipPathUnits="userSpaceOnUse"
       id="clipPath326">
      <path
         d="M 0,6179.527 H 3061.417 V 0 H 0 Z"
         transform="translate(-2515.3399,-5858.3878)"
         id="path326" />
    </clipPath>
    <clipPath
       clipPathUnits="userSpaceOnUse"
       id="clipPath328">
      <path
         d="M 0,6179.527 H 3061.417 V 0 H 0 Z"
         transform="translate(-2721.5479,-5745.2442)"
         id="path328" />
    </clipPath>
    <clipPath
       clipPathUnits="userSpaceOnUse"
       id="clipPath330">
      <path
         d="M 0,6179.527 H 3061.417 V 0 H 0 Z"
         transform="translate(-2782.1218,-5771.902)"
         id="path330" />
    </clipPath>
  </defs>
  <g
     id="layer1"
     transform="translate(66.410436,-36.512499)">
    <path
       id="path321"
       d="M 0,0 -734.576,-127.065 -697.96,-327.71 0,-206.074 Z"
       style="fill:#3a73bf;fill-opacity:1;fill-rule:nonzero;stroke:none"
       transform="matrix(0.35277776,0,0,-0.35277776,192.73164,36.512499)"
       clip-path="url(#clipPath322)" />
    <path
       id="path323"
       d="M 0,0 -2.17,-7.394 H -2.239 L -4.614,0 h -2.578 v -9.972 h 1.494 v 9.021 h 0.068 l 2.712,-9.021 h 1.221 l 2.783,9.021 H 1.153 V -9.972 H 2.644 V 0 Z m -17.298,0 v -1.289 h 3.256 v -8.683 h 1.492 v 8.683 h 3.19 V 0 Z"
       style="fill:#140e0c;fill-opacity:1;fill-rule:nonzero;stroke:none"
       transform="matrix(0.35277776,0,0,-0.35277776,153.454,120.58248)"
       clip-path="url(#clipPath324)" />
    <path
       id="path325"
       d="M 0,0 28.49,4.748 C 28.828,0.814 27.879,-7.529 26.116,-15.602 L 13.227,-75.904 c -2.984,-14.312 -3.324,-18.111 2.849,-18.111 0.95,0 1.899,0.136 2.985,0.474 l 0.814,-17.025 c -3.935,-1.425 -10.718,-2.51 -18.247,-2.51 -23.131,0 -21.096,11.938 -17.636,28.219 l 11.802,55.486 C -0.204,-10.582 0.135,-4.613 0,0 M -93.472,-111.041 -70.139,-1.29 h 63.831 l -6.988,-23.129 h -33.508 l -3.935,-18.451 h 27.406 l -4.75,-22.384 h -27.404 l -4.748,-22.316 h 37.647 l -5.019,-23.471 z"
       style="fill:#ffffff;fill-opacity:1;fill-rule:nonzero;stroke:none"
       transform="matrix(0.35277776,0,0,-0.35277776,-19.771956,82.989242)"
       clip-path="url(#clipPath326)" />
    <path
       id="path327"
       d="m 0,0 c -22.656,0 -33.711,14.517 -27.879,41.92 5.834,27.539 22.521,43.479 46.465,43.479 11.667,0 17.975,-2.984 24.556,-9.63 L 27.065,59.217 c -2.374,3.325 -6.444,5.969 -10.243,5.969 -6.307,0 -11.057,-5.019 -14.515,-21.57 -3.46,-16.551 -3.121,-23.334 4.748,-23.334 6.172,0 11.803,2.985 16.415,7.257 L 31.678,11.464 C 21.096,2.849 9.971,0 0,0 m -47.075,85.399 c 20.35,0 22.384,-11.53 19.875,-23.333 L -39.952,2.035 h -27.404 l 11.055,51.959 c 1.425,6.309 0.611,9.156 -3.933,9.156 -4.41,0 -7.869,-2.237 -11.328,-7.528 L -83.094,2.035 h -27.404 l 10.853,51.213 c 2.51,12.278 3.46,19.535 2.239,27.539 l 24.283,4.546 c 0.611,-2.646 1.29,-5.495 1.425,-8.818 6.172,5.562 15.601,8.884 24.623,8.884 M -137.97,65.051 c -2.034,0 -5.969,0.135 -9.903,-4.409 -5.833,-6.784 -9.293,-22.657 -9.293,-32.763 0,-5.495 1.56,-7.869 5.358,-7.869 3.325,0 8.955,5.699 9.632,8.343 l 7.531,35.612 c -0.95,0.814 -2.374,1.086 -3.325,1.086 m 29.1,-6.717 -6.172,-29.302 c -0.611,-2.714 -0.476,-8.343 3.12,-12.278 l -22.181,-17.772 c -3.323,1.764 -5.699,6.648 -6.173,9.633 -3.595,-3.799 -11.667,-8.954 -21.096,-8.954 -16.55,0 -23.468,10.379 -23.468,27.743 0,17.298 6.918,35.273 17.499,45.854 9.294,9.294 19.196,12.278 33.577,12.278 11.192,0 25.03,-1.9 31.067,-4.884 -2.374,-5.834 -4.748,-15.601 -6.173,-22.318"
       style="fill:#ffffff;fill-opacity:1;fill-rule:nonzero;stroke:none"
       transform="matrix(0.35277776,0,0,-0.35277776,52.973669,122.90379)"
       clip-path="url(#clipPath328)" />
    <path
       id="path329"
       d="m 0,0 c 0,-5.02 1.763,-7.394 6.172,-7.394 11.329,0 16.077,34.187 16.077,39.683 0,5.493 -2.035,7.393 -6.173,7.393 C 4.748,39.682 0,5.63 0,0 m 51.213,29.915 c 0,-21.3 -11.803,-56.573 -49.788,-56.573 -19.197,0 -30.118,10.581 -30.118,29.304 0,20.959 11.328,56.097 49.789,56.097 17.025,0 30.117,-8.344 30.117,-28.828"
       style="fill:#ffffff;fill-opacity:1;fill-rule:nonzero;stroke:none"
       transform="matrix(0.35277776,0,0,-0.35277776,74.342795,113.49951)"
       clip-path="url(#clipPath330)" />
  </g>
</svg>
